<?xml version="1.0" encoding="UTF-8" standalone="no"?>
<!-- Created with Inkscape (http://www.inkscape.org/) -->

<svg
   xmlns:dc="http://purl.org/dc/elements/1.1/"
   xmlns:cc="http://creativecommons.org/ns#"
   xmlns:rdf="http://www.w3.org/1999/02/22-rdf-syntax-ns#"
   xmlns:svg="http://www.w3.org/2000/svg"
   xmlns="http://www.w3.org/2000/svg"
   xmlns:sodipodi="http://sodipodi.sourceforge.net/DTD/sodipodi-0.dtd"
   xmlns:inkscape="http://www.inkscape.org/namespaces/inkscape"
   version="1.1"
   id="svg839"
   xml:space="preserve"
   width="793.70135"
   height="793.70135"
   viewBox="0 0 793.70135 793.70135"
   sodipodi:docname="white-dots-blue-bkg.svg"
   inkscape:version="0.92.4 (5da689c313, 2019-01-14)"><metadata
     id="metadata845"><rdf:RDF><cc:Work
         rdf:about=""><dc:format>image/svg+xml</dc:format><dc:type
           rdf:resource="http://purl.org/dc/dcmitype/StillImage" /><dc:title></dc:title></cc:Work></rdf:RDF></metadata><defs
     id="defs843"><clipPath
       clipPathUnits="userSpaceOnUse"
       id="clipPath855"><path
         d="M 0,595.276 H 595.276 V 0 H 0 Z"
         id="path853"
         inkscape:connector-curvature="0" /></clipPath></defs><sodipodi:namedview
     pagecolor="#ffffff"
     bordercolor="#666666"
     borderopacity="1"
     objecttolerance="10"
     gridtolerance="10"
     guidetolerance="10"
     inkscape:pageopacity="0"
     inkscape:pageshadow="2"
     inkscape:window-width="1920"
     inkscape:window-height="1018"
     id="namedview841"
     showgrid="false"
     inkscape:zoom="0.63427778"
     inkscape:cx="543.14733"
     inkscape:cy="396.85068"
     inkscape:window-x="-8"
     inkscape:window-y="-8"
     inkscape:window-maximized="1"
     inkscape:current-layer="g847" /><g
     id="g847"
     inkscape:groupmode="layer"
     inkscape:label="polka-dots-publicdomainvectors [Converted]"
     transform="matrix(1.3333333,0,0,-1.3333333,0,793.70133)"><g
       id="g849"><g
         id="g851"
         clip-path="url(#clipPath855)"><path
           d="M 595.275,-0.672 H 0 v 595.947 h 595.275 z"
           style="fill:#00adef;fill-opacity:1;fill-rule:nonzero;stroke:none"
           id="path857"
           inkscape:connector-curvature="0" /><path
           d="m -0.016,-0.046 v 8.204 c 0.585,0.119 1.19,0.183 1.809,0.183 4.753,0 8.643,-3.702 8.963,-8.387 z"
           style="fill:#ffffff;fill-opacity:1;fill-rule:nonzero;stroke:none"
           id="path859"
           inkscape:connector-curvature="0" /><path
           d="m 32.362,-0.046 c 0.321,4.685 4.211,8.387 8.963,8.387 4.753,0 8.643,-3.702 8.963,-8.387 z"
           style="fill:#ffffff;fill-opacity:1;fill-rule:nonzero;stroke:none"
           id="path861"
           inkscape:connector-curvature="0" /><path
           d="m 71.893,-0.046 c 0.322,4.685 4.211,8.387 8.963,8.387 4.753,0 8.643,-3.702 8.963,-8.387 z"
           style="fill:#ffffff;fill-opacity:1;fill-rule:nonzero;stroke:none"
           id="path863"
           inkscape:connector-curvature="0" /><path
           d="m 111.425,-0.046 c 0.321,4.685 4.211,8.387 8.963,8.387 4.753,0 8.643,-3.702 8.964,-8.387 z"
           style="fill:#ffffff;fill-opacity:1;fill-rule:nonzero;stroke:none"
           id="path865"
           inkscape:connector-curvature="0" /><path
           d="m 150.957,-0.046 c 0.32,4.685 4.21,8.387 8.962,8.387 4.753,0 8.644,-3.702 8.963,-8.387 z"
           style="fill:#ffffff;fill-opacity:1;fill-rule:nonzero;stroke:none"
           id="path867"
           inkscape:connector-curvature="0" /><path
           d="m 190.488,-0.046 c 0.321,4.685 4.211,8.387 8.963,8.387 4.752,0 8.643,-3.702 8.963,-8.387 z"
           style="fill:#ffffff;fill-opacity:1;fill-rule:nonzero;stroke:none"
           id="path869"
           inkscape:connector-curvature="0" /><path
           d="m 230.02,-0.046 c 0.32,4.685 4.21,8.387 8.962,8.387 4.753,0 8.643,-3.702 8.963,-8.387 z"
           style="fill:#ffffff;fill-opacity:1;fill-rule:nonzero;stroke:none"
           id="path871"
           inkscape:connector-curvature="0" /><path
           d="m 269.551,-0.046 c 0.321,4.685 4.211,8.387 8.963,8.387 4.752,0 8.642,-3.702 8.963,-8.387 z"
           style="fill:#ffffff;fill-opacity:1;fill-rule:nonzero;stroke:none"
           id="path873"
           inkscape:connector-curvature="0" /><path
           d="m 309.082,-0.046 c 0.322,4.685 4.211,8.387 8.963,8.387 4.754,0 8.643,-3.702 8.964,-8.387 z"
           style="fill:#ffffff;fill-opacity:1;fill-rule:nonzero;stroke:none"
           id="path875"
           inkscape:connector-curvature="0" /><path
           d="m 348.615,-0.046 c 0.321,4.685 4.21,8.387 8.962,8.387 4.752,0 8.642,-3.702 8.964,-8.387 z"
           style="fill:#ffffff;fill-opacity:1;fill-rule:nonzero;stroke:none"
           id="path877"
           inkscape:connector-curvature="0" /><path
           d="m 388.146,-0.046 c 0.321,4.685 4.21,8.387 8.961,8.387 4.754,0 8.644,-3.702 8.964,-8.387 z"
           style="fill:#ffffff;fill-opacity:1;fill-rule:nonzero;stroke:none"
           id="path879"
           inkscape:connector-curvature="0" /><path
           d="m 427.678,-0.046 c 0.321,4.685 4.211,8.387 8.962,8.387 4.754,0 8.643,-3.702 8.964,-8.387 z"
           style="fill:#ffffff;fill-opacity:1;fill-rule:nonzero;stroke:none"
           id="path881"
           inkscape:connector-curvature="0" /><path
           d="m 467.208,-0.046 c 0.321,4.685 4.211,8.387 8.964,8.387 4.751,0 8.641,-3.702 8.963,-8.387 z"
           style="fill:#ffffff;fill-opacity:1;fill-rule:nonzero;stroke:none"
           id="path883"
           inkscape:connector-curvature="0" /><path
           d="m 506.74,-0.046 c 0.322,4.685 4.21,8.387 8.963,8.387 4.753,0 8.643,-3.702 8.963,-8.387 z"
           style="fill:#ffffff;fill-opacity:1;fill-rule:nonzero;stroke:none"
           id="path885"
           inkscape:connector-curvature="0" /><path
           d="m 546.272,-0.046 c 0.321,4.685 4.21,8.387 8.963,8.387 4.751,0 8.642,-3.702 8.962,-8.387 z"
           style="fill:#ffffff;fill-opacity:1;fill-rule:nonzero;stroke:none"
           id="path887"
           inkscape:connector-curvature="0" /><path
           d="m 585.803,-0.046 c 0.32,4.685 4.211,8.387 8.963,8.387 0.16,0 0.318,-0.004 0.476,-0.013 v -8.374 z"
           style="fill:#ffffff;fill-opacity:1;fill-rule:nonzero;stroke:none"
           id="path889"
           inkscape:connector-curvature="0" /><path
           d="M -0.016,47.817 C 0.569,47.937 1.174,48 1.793,48 c 4.962,0 8.985,-4.035 8.985,-9.014 -0.001,-4.977 -4.023,-9.012 -8.985,-9.012 -0.619,0 -1.224,0.062 -1.809,0.183 z"
           style="fill:#ffffff;fill-opacity:1;fill-rule:nonzero;stroke:none"
           id="path891"
           inkscape:connector-curvature="0" /><path
           d="m 50.31,38.986 c -0.001,-4.977 -4.023,-9.012 -8.985,-9.012 -4.962,0 -8.984,4.036 -8.984,9.012 0,4.979 4.022,9.014 8.984,9.014 4.962,0 8.985,-4.035 8.985,-9.014"
           style="fill:#ffffff;fill-opacity:1;fill-rule:nonzero;stroke:none"
           id="path893"
           inkscape:connector-curvature="0" /><path
           d="m 89.841,38.986 c 0,-4.977 -4.023,-9.012 -8.984,-9.012 -4.963,0 -8.985,4.036 -8.985,9.012 0.001,4.979 4.023,9.014 8.984,9.014 4.962,0 8.985,-4.035 8.985,-9.014"
           style="fill:#ffffff;fill-opacity:1;fill-rule:nonzero;stroke:none"
           id="path895"
           inkscape:connector-curvature="0" /><path
           d="m 129.373,38.986 c -10e-4,-4.977 -4.023,-9.012 -8.985,-9.012 -4.962,0 -8.985,4.036 -8.985,9.012 0,4.979 4.023,9.014 8.985,9.014 4.963,0 8.985,-4.035 8.985,-9.014"
           style="fill:#ffffff;fill-opacity:1;fill-rule:nonzero;stroke:none"
           id="path897"
           inkscape:connector-curvature="0" /><path
           d="m 168.903,38.986 c 0,-4.977 -4.022,-9.012 -8.983,-9.012 -4.962,0 -8.985,4.036 -8.984,9.012 0,4.979 4.022,9.014 8.983,9.014 4.962,0 8.985,-4.035 8.984,-9.014"
           style="fill:#ffffff;fill-opacity:1;fill-rule:nonzero;stroke:none"
           id="path899"
           inkscape:connector-curvature="0" /><path
           d="m 208.436,38.986 c -0.001,-4.977 -4.023,-9.012 -8.985,-9.012 -4.962,0 -8.984,4.036 -8.984,9.012 0,4.979 4.022,9.014 8.984,9.014 4.962,0 8.985,-4.035 8.985,-9.014"
           style="fill:#ffffff;fill-opacity:1;fill-rule:nonzero;stroke:none"
           id="path901"
           inkscape:connector-curvature="0" /><path
           d="m 247.967,38.986 c 0,-4.977 -4.023,-9.012 -8.984,-9.012 -4.962,0 -8.985,4.036 -8.985,9.012 0,4.979 4.023,9.014 8.984,9.014 4.963,0 8.985,-4.035 8.985,-9.014"
           style="fill:#ffffff;fill-opacity:1;fill-rule:nonzero;stroke:none"
           id="path903"
           inkscape:connector-curvature="0" /><path
           d="m 287.499,38.986 c 0,-4.977 -4.023,-9.012 -8.985,-9.012 -4.962,0 -8.985,4.036 -8.985,9.012 10e-4,4.979 4.023,9.014 8.985,9.014 4.962,0 8.985,-4.035 8.985,-9.014"
           style="fill:#ffffff;fill-opacity:1;fill-rule:nonzero;stroke:none"
           id="path905"
           inkscape:connector-curvature="0" /><path
           d="m 327.03,38.986 c 0,-4.977 -4.023,-9.012 -8.985,-9.012 -4.962,0 -8.984,4.036 -8.984,9.012 0,4.979 4.022,9.014 8.984,9.014 4.963,0 8.985,-4.035 8.985,-9.014"
           style="fill:#ffffff;fill-opacity:1;fill-rule:nonzero;stroke:none"
           id="path907"
           inkscape:connector-curvature="0" /><path
           d="m 366.563,38.986 c 0,-4.977 -4.024,-9.012 -8.986,-9.012 -4.961,0 -8.983,4.036 -8.983,9.012 0,4.979 4.022,9.014 8.983,9.014 4.962,0 8.986,-4.035 8.986,-9.014"
           style="fill:#ffffff;fill-opacity:1;fill-rule:nonzero;stroke:none"
           id="path909"
           inkscape:connector-curvature="0" /><path
           d="m 406.093,38.986 c 0,-4.977 -4.022,-9.012 -8.986,-9.012 -4.961,0 -8.983,4.036 -8.983,9.012 10e-4,4.979 4.022,9.014 8.983,9.014 4.964,0 8.986,-4.035 8.986,-9.014"
           style="fill:#ffffff;fill-opacity:1;fill-rule:nonzero;stroke:none"
           id="path911"
           inkscape:connector-curvature="0" /><path
           d="m 445.625,38.986 c -10e-4,-4.977 -4.022,-9.012 -8.984,-9.012 -4.963,0 -8.984,4.036 -8.984,9.012 0,4.979 4.021,9.014 8.983,9.014 4.963,0 8.985,-4.035 8.985,-9.014"
           style="fill:#ffffff;fill-opacity:1;fill-rule:nonzero;stroke:none"
           id="path913"
           inkscape:connector-curvature="0" /><path
           d="m 485.156,38.986 c 0,-4.977 -4.023,-9.012 -8.984,-9.012 -4.962,0 -8.985,4.036 -8.985,9.012 0,4.979 4.023,9.014 8.985,9.014 4.961,0 8.984,-4.035 8.984,-9.014"
           style="fill:#ffffff;fill-opacity:1;fill-rule:nonzero;stroke:none"
           id="path915"
           inkscape:connector-curvature="0" /><path
           d="m 524.688,38.986 c -10e-4,-4.977 -4.023,-9.012 -8.985,-9.012 -4.963,0 -8.984,4.036 -8.984,9.012 0.001,4.979 4.021,9.014 8.984,9.014 4.962,0 8.985,-4.035 8.985,-9.014"
           style="fill:#ffffff;fill-opacity:1;fill-rule:nonzero;stroke:none"
           id="path917"
           inkscape:connector-curvature="0" /><path
           d="m 564.219,38.986 c 0,-4.977 -4.022,-9.012 -8.984,-9.012 -4.962,0 -8.984,4.036 -8.984,9.012 0,4.979 4.022,9.014 8.984,9.014 4.962,0 8.984,-4.035 8.984,-9.014"
           style="fill:#ffffff;fill-opacity:1;fill-rule:nonzero;stroke:none"
           id="path919"
           inkscape:connector-curvature="0" /><path
           d="m 595.242,29.986 c -0.158,-0.008 -0.316,-0.012 -0.476,-0.012 -4.962,0 -8.985,4.036 -8.985,9.012 0,4.979 4.023,9.014 8.985,9.014 0.16,0 0.318,-0.003 0.476,-0.012 z"
           style="fill:#ffffff;fill-opacity:1;fill-rule:nonzero;stroke:none"
           id="path921"
           inkscape:connector-curvature="0" /><path
           d="m -0.016,87.477 c 0.585,0.119 1.19,0.183 1.809,0.183 4.962,0 8.985,-4.037 8.985,-9.014 -0.001,-4.978 -4.023,-9.013 -8.985,-9.013 -0.619,0 -1.224,0.062 -1.809,0.182 z"
           style="fill:#ffffff;fill-opacity:1;fill-rule:nonzero;stroke:none"
           id="path923"
           inkscape:connector-curvature="0" /><path
           d="m 50.31,78.646 c -0.001,-4.978 -4.023,-9.013 -8.985,-9.013 -4.962,-10e-4 -8.984,4.036 -8.984,9.012 0,4.979 4.022,9.014 8.984,9.015 4.962,0 8.985,-4.037 8.985,-9.014"
           style="fill:#ffffff;fill-opacity:1;fill-rule:nonzero;stroke:none"
           id="path925"
           inkscape:connector-curvature="0" /><path
           d="m 89.841,78.646 c 0,-4.978 -4.023,-9.013 -8.984,-9.013 -4.963,-10e-4 -8.985,4.036 -8.985,9.012 0.001,4.979 4.023,9.014 8.984,9.015 4.962,0 8.985,-4.037 8.985,-9.014"
           style="fill:#ffffff;fill-opacity:1;fill-rule:nonzero;stroke:none"
           id="path927"
           inkscape:connector-curvature="0" /><path
           d="m 129.373,78.646 c -10e-4,-4.978 -4.023,-9.013 -8.985,-9.013 -4.962,-10e-4 -8.985,4.036 -8.985,9.012 0,4.979 4.023,9.014 8.985,9.015 4.963,0 8.985,-4.037 8.985,-9.014"
           style="fill:#ffffff;fill-opacity:1;fill-rule:nonzero;stroke:none"
           id="path929"
           inkscape:connector-curvature="0" /><path
           d="m 168.903,78.646 c 0,-4.978 -4.022,-9.013 -8.983,-9.013 -4.962,-10e-4 -8.985,4.036 -8.984,9.012 0,4.979 4.022,9.014 8.983,9.015 4.962,0 8.985,-4.037 8.984,-9.014"
           style="fill:#ffffff;fill-opacity:1;fill-rule:nonzero;stroke:none"
           id="path931"
           inkscape:connector-curvature="0" /><path
           d="m 208.436,78.646 c -0.001,-4.978 -4.023,-9.013 -8.985,-9.013 -4.962,-10e-4 -8.984,4.036 -8.984,9.012 0,4.979 4.022,9.014 8.984,9.015 4.962,0 8.985,-4.037 8.985,-9.014"
           style="fill:#ffffff;fill-opacity:1;fill-rule:nonzero;stroke:none"
           id="path933"
           inkscape:connector-curvature="0" /><path
           d="m 247.967,78.646 c 0,-4.978 -4.023,-9.013 -8.984,-9.013 -4.962,-10e-4 -8.985,4.036 -8.985,9.012 0,4.979 4.023,9.014 8.984,9.015 4.963,0 8.985,-4.037 8.985,-9.014"
           style="fill:#ffffff;fill-opacity:1;fill-rule:nonzero;stroke:none"
           id="path935"
           inkscape:connector-curvature="0" /><path
           d="m 287.499,78.646 c 0,-4.978 -4.023,-9.013 -8.985,-9.013 -4.962,-10e-4 -8.985,4.036 -8.985,9.012 10e-4,4.979 4.023,9.014 8.985,9.015 4.962,0 8.985,-4.037 8.985,-9.014"
           style="fill:#ffffff;fill-opacity:1;fill-rule:nonzero;stroke:none"
           id="path937"
           inkscape:connector-curvature="0" /><path
           d="m 327.03,78.646 c 0,-4.978 -4.023,-9.013 -8.985,-9.013 -4.962,-10e-4 -8.984,4.036 -8.984,9.012 0,4.979 4.022,9.014 8.984,9.015 4.963,0 8.985,-4.037 8.985,-9.014"
           style="fill:#ffffff;fill-opacity:1;fill-rule:nonzero;stroke:none"
           id="path939"
           inkscape:connector-curvature="0" /><path
           d="m 366.563,78.646 c 0,-4.978 -4.024,-9.013 -8.986,-9.013 -4.961,-10e-4 -8.983,4.036 -8.983,9.012 0,4.979 4.022,9.014 8.983,9.015 4.962,0 8.986,-4.037 8.986,-9.014"
           style="fill:#ffffff;fill-opacity:1;fill-rule:nonzero;stroke:none"
           id="path941"
           inkscape:connector-curvature="0" /><path
           d="m 406.093,78.646 c 0,-4.978 -4.022,-9.013 -8.986,-9.013 -4.961,-10e-4 -8.983,4.036 -8.983,9.012 10e-4,4.979 4.022,9.014 8.983,9.015 4.964,0 8.986,-4.037 8.986,-9.014"
           style="fill:#ffffff;fill-opacity:1;fill-rule:nonzero;stroke:none"
           id="path943"
           inkscape:connector-curvature="0" /><path
           d="m 445.625,78.646 c -10e-4,-4.978 -4.022,-9.013 -8.984,-9.013 -4.963,-10e-4 -8.984,4.036 -8.984,9.012 0,4.979 4.021,9.014 8.983,9.015 4.963,0 8.985,-4.037 8.985,-9.014"
           style="fill:#ffffff;fill-opacity:1;fill-rule:nonzero;stroke:none"
           id="path945"
           inkscape:connector-curvature="0" /><path
           d="m 485.156,78.646 c 0,-4.978 -4.023,-9.013 -8.984,-9.013 -4.962,-10e-4 -8.985,4.036 -8.985,9.012 0,4.979 4.023,9.014 8.985,9.015 4.961,0 8.984,-4.037 8.984,-9.014"
           style="fill:#ffffff;fill-opacity:1;fill-rule:nonzero;stroke:none"
           id="path947"
           inkscape:connector-curvature="0" /><path
           d="m 524.688,78.646 c -10e-4,-4.978 -4.023,-9.013 -8.985,-9.013 -4.963,-10e-4 -8.984,4.036 -8.984,9.012 0.001,4.979 4.021,9.014 8.984,9.015 4.962,0 8.985,-4.037 8.985,-9.014"
           style="fill:#ffffff;fill-opacity:1;fill-rule:nonzero;stroke:none"
           id="path949"
           inkscape:connector-curvature="0" /><path
           d="m 564.219,78.646 c 0,-4.978 -4.022,-9.013 -8.984,-9.013 -4.962,-10e-4 -8.984,4.036 -8.984,9.012 0,4.979 4.022,9.014 8.984,9.015 4.962,0 8.984,-4.037 8.984,-9.014"
           style="fill:#ffffff;fill-opacity:1;fill-rule:nonzero;stroke:none"
           id="path951"
           inkscape:connector-curvature="0" /><path
           d="m 595.242,69.646 c -0.158,-0.009 -0.316,-0.013 -0.476,-0.013 -4.962,-10e-4 -8.985,4.036 -8.985,9.012 0,4.979 4.023,9.014 8.985,9.015 0.16,0 0.318,-0.004 0.476,-0.013 z"
           style="fill:#ffffff;fill-opacity:1;fill-rule:nonzero;stroke:none"
           id="path953"
           inkscape:connector-curvature="0" /><path
           d="m -0.016,127.136 c 0.585,0.119 1.19,0.182 1.809,0.182 4.962,0.001 8.985,-4.035 8.985,-9.013 -0.001,-4.978 -4.023,-9.012 -8.985,-9.014 -0.619,0 -1.224,0.063 -1.809,0.183 z"
           style="fill:#ffffff;fill-opacity:1;fill-rule:nonzero;stroke:none"
           id="path955"
           inkscape:connector-curvature="0" /><path
           d="m 50.31,118.305 c -0.001,-4.978 -4.023,-9.012 -8.985,-9.014 -4.962,0 -8.984,4.037 -8.984,9.013 0,4.98 4.022,9.014 8.984,9.014 4.962,0.001 8.985,-4.035 8.985,-9.013"
           style="fill:#ffffff;fill-opacity:1;fill-rule:nonzero;stroke:none"
           id="path957"
           inkscape:connector-curvature="0" /><path
           d="m 89.841,118.305 c 0,-4.978 -4.023,-9.012 -8.984,-9.014 -4.963,0 -8.985,4.037 -8.985,9.013 0.001,4.98 4.023,9.014 8.984,9.014 4.962,0.001 8.985,-4.035 8.985,-9.013"
           style="fill:#ffffff;fill-opacity:1;fill-rule:nonzero;stroke:none"
           id="path959"
           inkscape:connector-curvature="0" /><path
           d="m 129.373,118.305 c -10e-4,-4.978 -4.023,-9.012 -8.985,-9.014 -4.962,0 -8.985,4.037 -8.985,9.013 0,4.98 4.023,9.014 8.985,9.014 4.963,0.001 8.985,-4.035 8.985,-9.013"
           style="fill:#ffffff;fill-opacity:1;fill-rule:nonzero;stroke:none"
           id="path961"
           inkscape:connector-curvature="0" /><path
           d="m 168.903,118.305 c 0,-4.978 -4.022,-9.012 -8.983,-9.014 -4.962,0 -8.985,4.037 -8.984,9.013 0,4.98 4.022,9.014 8.983,9.014 4.962,0.001 8.985,-4.035 8.984,-9.013"
           style="fill:#ffffff;fill-opacity:1;fill-rule:nonzero;stroke:none"
           id="path963"
           inkscape:connector-curvature="0" /><path
           d="m 208.436,118.305 c -0.001,-4.978 -4.023,-9.012 -8.985,-9.014 -4.962,0 -8.984,4.037 -8.984,9.013 0,4.98 4.022,9.014 8.984,9.014 4.962,0.001 8.985,-4.035 8.985,-9.013"
           style="fill:#ffffff;fill-opacity:1;fill-rule:nonzero;stroke:none"
           id="path965"
           inkscape:connector-curvature="0" /><path
           d="m 247.967,118.305 c 0,-4.978 -4.023,-9.012 -8.984,-9.014 -4.962,0 -8.985,4.037 -8.985,9.013 0,4.98 4.023,9.014 8.984,9.014 4.963,0.001 8.985,-4.035 8.985,-9.013"
           style="fill:#ffffff;fill-opacity:1;fill-rule:nonzero;stroke:none"
           id="path967"
           inkscape:connector-curvature="0" /><path
           d="m 287.499,118.305 c 0,-4.978 -4.023,-9.012 -8.985,-9.014 -4.962,0 -8.985,4.037 -8.985,9.013 10e-4,4.98 4.023,9.014 8.985,9.014 4.962,0.001 8.985,-4.035 8.985,-9.013"
           style="fill:#ffffff;fill-opacity:1;fill-rule:nonzero;stroke:none"
           id="path969"
           inkscape:connector-curvature="0" /><path
           d="m 327.03,118.305 c 0,-4.978 -4.023,-9.012 -8.985,-9.014 -4.962,0 -8.984,4.037 -8.984,9.013 0,4.98 4.022,9.014 8.984,9.014 4.963,0.001 8.985,-4.035 8.985,-9.013"
           style="fill:#ffffff;fill-opacity:1;fill-rule:nonzero;stroke:none"
           id="path971"
           inkscape:connector-curvature="0" /><path
           d="m 366.563,118.305 c 0,-4.978 -4.024,-9.012 -8.986,-9.014 -4.961,0 -8.983,4.037 -8.983,9.013 0,4.98 4.022,9.014 8.983,9.014 4.962,0.001 8.986,-4.035 8.986,-9.013"
           style="fill:#ffffff;fill-opacity:1;fill-rule:nonzero;stroke:none"
           id="path973"
           inkscape:connector-curvature="0" /><path
           d="m 406.093,118.305 c 0,-4.978 -4.022,-9.012 -8.986,-9.014 -4.961,0 -8.983,4.037 -8.983,9.013 10e-4,4.98 4.022,9.014 8.983,9.014 4.964,0.001 8.986,-4.035 8.986,-9.013"
           style="fill:#ffffff;fill-opacity:1;fill-rule:nonzero;stroke:none"
           id="path975"
           inkscape:connector-curvature="0" /><path
           d="m 445.625,118.305 c -10e-4,-4.978 -4.022,-9.012 -8.984,-9.014 -4.963,0 -8.984,4.037 -8.984,9.013 0,4.98 4.021,9.014 8.983,9.014 4.963,0.001 8.985,-4.035 8.985,-9.013"
           style="fill:#ffffff;fill-opacity:1;fill-rule:nonzero;stroke:none"
           id="path977"
           inkscape:connector-curvature="0" /><path
           d="m 485.156,118.305 c 0,-4.978 -4.023,-9.012 -8.984,-9.014 -4.962,0 -8.985,4.037 -8.985,9.013 0,4.98 4.023,9.014 8.985,9.014 4.961,0.001 8.984,-4.035 8.984,-9.013"
           style="fill:#ffffff;fill-opacity:1;fill-rule:nonzero;stroke:none"
           id="path979"
           inkscape:connector-curvature="0" /><path
           d="m 524.688,118.305 c -10e-4,-4.978 -4.023,-9.012 -8.985,-9.014 -4.963,0 -8.984,4.037 -8.984,9.013 0.001,4.98 4.021,9.014 8.984,9.014 4.962,0.001 8.985,-4.035 8.985,-9.013"
           style="fill:#ffffff;fill-opacity:1;fill-rule:nonzero;stroke:none"
           id="path981"
           inkscape:connector-curvature="0" /><path
           d="m 564.219,118.305 c 0,-4.978 -4.022,-9.012 -8.984,-9.014 -4.962,0 -8.984,4.037 -8.984,9.013 0,4.98 4.022,9.014 8.984,9.014 4.962,0.001 8.984,-4.035 8.984,-9.013"
           style="fill:#ffffff;fill-opacity:1;fill-rule:nonzero;stroke:none"
           id="path983"
           inkscape:connector-curvature="0" /><path
           d="m 595.242,109.304 c -0.158,-0.009 -0.316,-0.013 -0.476,-0.013 -4.962,0 -8.985,4.037 -8.985,9.013 0,4.98 4.023,9.014 8.985,9.014 0.16,0 0.318,-0.004 0.476,-0.012 z"
           style="fill:#ffffff;fill-opacity:1;fill-rule:nonzero;stroke:none"
           id="path985"
           inkscape:connector-curvature="0" /><path
           d="m -0.016,166.795 c 0.585,0.121 1.19,0.183 1.809,0.183 4.962,0 8.985,-4.037 8.985,-9.014 -0.001,-4.978 -4.023,-9.013 -8.985,-9.014 -0.619,0 -1.224,0.063 -1.809,0.184 z"
           style="fill:#ffffff;fill-opacity:1;fill-rule:nonzero;stroke:none"
           id="path987"
           inkscape:connector-curvature="0" /><path
           d="m 50.31,157.964 c -0.001,-4.978 -4.023,-9.013 -8.985,-9.014 -4.962,0 -8.984,4.036 -8.984,9.014 0,4.979 4.022,9.014 8.984,9.014 4.962,0 8.985,-4.037 8.985,-9.014"
           style="fill:#ffffff;fill-opacity:1;fill-rule:nonzero;stroke:none"
           id="path989"
           inkscape:connector-curvature="0" /><path
           d="m 89.841,157.964 c 0,-4.978 -4.023,-9.013 -8.984,-9.014 -4.963,0 -8.985,4.036 -8.985,9.014 0.001,4.979 4.023,9.014 8.984,9.014 4.962,0 8.985,-4.037 8.985,-9.014"
           style="fill:#ffffff;fill-opacity:1;fill-rule:nonzero;stroke:none"
           id="path991"
           inkscape:connector-curvature="0" /><path
           d="m 129.373,157.964 c -10e-4,-4.978 -4.023,-9.013 -8.985,-9.014 -4.962,0 -8.985,4.036 -8.985,9.014 0,4.979 4.023,9.014 8.985,9.014 4.963,0 8.985,-4.037 8.985,-9.014"
           style="fill:#ffffff;fill-opacity:1;fill-rule:nonzero;stroke:none"
           id="path993"
           inkscape:connector-curvature="0" /><path
           d="m 168.903,157.964 c 0,-4.978 -4.022,-9.013 -8.983,-9.014 -4.962,0 -8.985,4.036 -8.984,9.014 0,4.979 4.022,9.014 8.983,9.014 4.962,0 8.985,-4.037 8.984,-9.014"
           style="fill:#ffffff;fill-opacity:1;fill-rule:nonzero;stroke:none"
           id="path995"
           inkscape:connector-curvature="0" /><path
           d="m 208.436,157.964 c -0.001,-4.978 -4.023,-9.013 -8.985,-9.014 -4.962,0 -8.984,4.036 -8.984,9.014 0,4.979 4.022,9.014 8.984,9.014 4.962,0 8.985,-4.037 8.985,-9.014"
           style="fill:#ffffff;fill-opacity:1;fill-rule:nonzero;stroke:none"
           id="path997"
           inkscape:connector-curvature="0" /><path
           d="m 247.967,157.964 c 0,-4.978 -4.023,-9.013 -8.984,-9.014 -4.962,0 -8.985,4.036 -8.985,9.014 0,4.979 4.023,9.014 8.984,9.014 4.963,0 8.985,-4.037 8.985,-9.014"
           style="fill:#ffffff;fill-opacity:1;fill-rule:nonzero;stroke:none"
           id="path999"
           inkscape:connector-curvature="0" /><path
           d="m 287.499,157.964 c 0,-4.978 -4.023,-9.013 -8.985,-9.014 -4.962,0 -8.985,4.036 -8.985,9.014 10e-4,4.979 4.023,9.014 8.985,9.014 4.962,0 8.985,-4.037 8.985,-9.014"
           style="fill:#ffffff;fill-opacity:1;fill-rule:nonzero;stroke:none"
           id="path1001"
           inkscape:connector-curvature="0" /><path
           d="m 327.03,157.964 c 0,-4.978 -4.023,-9.013 -8.985,-9.014 -4.962,0 -8.984,4.036 -8.984,9.014 0,4.979 4.022,9.014 8.984,9.014 4.963,0 8.985,-4.037 8.985,-9.014"
           style="fill:#ffffff;fill-opacity:1;fill-rule:nonzero;stroke:none"
           id="path1003"
           inkscape:connector-curvature="0" /><path
           d="m 366.563,157.964 c 0,-4.978 -4.024,-9.013 -8.986,-9.014 -4.961,0 -8.983,4.036 -8.983,9.014 0,4.979 4.022,9.014 8.983,9.014 4.962,0 8.986,-4.037 8.986,-9.014"
           style="fill:#ffffff;fill-opacity:1;fill-rule:nonzero;stroke:none"
           id="path1005"
           inkscape:connector-curvature="0" /><path
           d="m 406.093,157.964 c 0,-4.978 -4.022,-9.013 -8.986,-9.014 -4.961,0 -8.983,4.036 -8.983,9.014 10e-4,4.979 4.022,9.014 8.983,9.014 4.964,0 8.986,-4.037 8.986,-9.014"
           style="fill:#ffffff;fill-opacity:1;fill-rule:nonzero;stroke:none"
           id="path1007"
           inkscape:connector-curvature="0" /><path
           d="m 445.625,157.964 c -10e-4,-4.978 -4.022,-9.013 -8.984,-9.014 -4.963,0 -8.984,4.036 -8.984,9.014 0,4.979 4.021,9.014 8.983,9.014 4.963,0 8.985,-4.037 8.985,-9.014"
           style="fill:#ffffff;fill-opacity:1;fill-rule:nonzero;stroke:none"
           id="path1009"
           inkscape:connector-curvature="0" /><path
           d="m 485.156,157.964 c 0,-4.978 -4.023,-9.013 -8.984,-9.014 -4.962,0 -8.985,4.036 -8.985,9.014 0,4.979 4.023,9.014 8.985,9.014 4.961,0 8.984,-4.037 8.984,-9.014"
           style="fill:#ffffff;fill-opacity:1;fill-rule:nonzero;stroke:none"
           id="path1011"
           inkscape:connector-curvature="0" /><path
           d="m 524.688,157.964 c -10e-4,-4.978 -4.023,-9.013 -8.985,-9.014 -4.963,0 -8.984,4.036 -8.984,9.014 0.001,4.979 4.021,9.014 8.984,9.014 4.962,0 8.985,-4.037 8.985,-9.014"
           style="fill:#ffffff;fill-opacity:1;fill-rule:nonzero;stroke:none"
           id="path1013"
           inkscape:connector-curvature="0" /><path
           d="m 564.219,157.964 c 0,-4.978 -4.022,-9.013 -8.984,-9.014 -4.962,0 -8.984,4.036 -8.984,9.014 0,4.979 4.022,9.014 8.984,9.014 4.962,0 8.984,-4.037 8.984,-9.014"
           style="fill:#ffffff;fill-opacity:1;fill-rule:nonzero;stroke:none"
           id="path1015"
           inkscape:connector-curvature="0" /><path
           d="m 595.242,148.963 c -0.158,-0.009 -0.316,-0.013 -0.476,-0.013 -4.962,0 -8.985,4.036 -8.985,9.014 0,4.979 4.023,9.014 8.985,9.014 0.16,0 0.318,-0.004 0.476,-0.013 z"
           style="fill:#ffffff;fill-opacity:1;fill-rule:nonzero;stroke:none"
           id="path1017"
           inkscape:connector-curvature="0" /><path
           d="m -0.016,206.453 c 0.585,0.121 1.19,0.184 1.809,0.184 4.962,0 8.985,-4.036 8.985,-9.014 -0.001,-4.977 -4.023,-9.014 -8.985,-9.014 -0.619,0 -1.224,0.063 -1.809,0.184 z"
           style="fill:#ffffff;fill-opacity:1;fill-rule:nonzero;stroke:none"
           id="path1019"
           inkscape:connector-curvature="0" /><path
           d="m 50.31,197.623 c -0.001,-4.977 -4.023,-9.014 -8.985,-9.014 -4.962,0 -8.984,4.037 -8.984,9.014 0,4.978 4.022,9.014 8.984,9.014 4.962,0 8.985,-4.036 8.985,-9.014"
           style="fill:#ffffff;fill-opacity:1;fill-rule:nonzero;stroke:none"
           id="path1021"
           inkscape:connector-curvature="0" /><path
           d="m 89.841,197.623 c 0,-4.977 -4.023,-9.014 -8.984,-9.014 -4.963,0 -8.985,4.037 -8.985,9.014 0.001,4.978 4.023,9.014 8.984,9.014 4.962,0 8.985,-4.036 8.985,-9.014"
           style="fill:#ffffff;fill-opacity:1;fill-rule:nonzero;stroke:none"
           id="path1023"
           inkscape:connector-curvature="0" /><path
           d="m 129.373,197.623 c -10e-4,-4.977 -4.023,-9.014 -8.985,-9.014 -4.962,0 -8.985,4.037 -8.985,9.014 0,4.978 4.023,9.014 8.985,9.014 4.963,0 8.985,-4.036 8.985,-9.014"
           style="fill:#ffffff;fill-opacity:1;fill-rule:nonzero;stroke:none"
           id="path1025"
           inkscape:connector-curvature="0" /><path
           d="m 168.903,197.623 c 0,-4.977 -4.022,-9.014 -8.983,-9.014 -4.962,0 -8.985,4.037 -8.984,9.014 0,4.978 4.022,9.014 8.983,9.014 4.962,0 8.985,-4.036 8.984,-9.014"
           style="fill:#ffffff;fill-opacity:1;fill-rule:nonzero;stroke:none"
           id="path1027"
           inkscape:connector-curvature="0" /><path
           d="m 208.436,197.623 c -0.001,-4.977 -4.023,-9.014 -8.985,-9.014 -4.962,0 -8.984,4.037 -8.984,9.014 0,4.978 4.022,9.014 8.984,9.014 4.962,0 8.985,-4.036 8.985,-9.014"
           style="fill:#ffffff;fill-opacity:1;fill-rule:nonzero;stroke:none"
           id="path1029"
           inkscape:connector-curvature="0" /><path
           d="m 247.967,197.623 c 0,-4.977 -4.023,-9.014 -8.984,-9.014 -4.962,0 -8.985,4.037 -8.985,9.014 0,4.978 4.023,9.014 8.984,9.014 4.963,0 8.985,-4.036 8.985,-9.014"
           style="fill:#ffffff;fill-opacity:1;fill-rule:nonzero;stroke:none"
           id="path1031"
           inkscape:connector-curvature="0" /><path
           d="m 287.499,197.623 c 0,-4.977 -4.023,-9.014 -8.985,-9.014 -4.962,0 -8.985,4.037 -8.985,9.014 10e-4,4.978 4.023,9.014 8.985,9.014 4.962,0 8.985,-4.036 8.985,-9.014"
           style="fill:#ffffff;fill-opacity:1;fill-rule:nonzero;stroke:none"
           id="path1033"
           inkscape:connector-curvature="0" /><path
           d="m 327.03,197.623 c 0,-4.977 -4.023,-9.014 -8.985,-9.014 -4.962,0 -8.984,4.037 -8.984,9.014 0,4.978 4.022,9.014 8.984,9.014 4.963,0 8.985,-4.036 8.985,-9.014"
           style="fill:#ffffff;fill-opacity:1;fill-rule:nonzero;stroke:none"
           id="path1035"
           inkscape:connector-curvature="0" /><path
           d="m 366.563,197.623 c 0,-4.977 -4.024,-9.014 -8.986,-9.014 -4.961,0 -8.983,4.037 -8.983,9.014 0,4.978 4.022,9.014 8.983,9.014 4.962,0 8.986,-4.036 8.986,-9.014"
           style="fill:#ffffff;fill-opacity:1;fill-rule:nonzero;stroke:none"
           id="path1037"
           inkscape:connector-curvature="0" /><path
           d="m 406.093,197.623 c 0,-4.977 -4.022,-9.014 -8.986,-9.014 -4.961,0 -8.983,4.037 -8.983,9.014 10e-4,4.978 4.022,9.014 8.983,9.014 4.964,0 8.986,-4.036 8.986,-9.014"
           style="fill:#ffffff;fill-opacity:1;fill-rule:nonzero;stroke:none"
           id="path1039"
           inkscape:connector-curvature="0" /><path
           d="m 445.625,197.623 c -10e-4,-4.977 -4.022,-9.014 -8.984,-9.014 -4.963,0 -8.984,4.037 -8.984,9.014 0,4.978 4.021,9.014 8.983,9.014 4.963,0 8.985,-4.036 8.985,-9.014"
           style="fill:#ffffff;fill-opacity:1;fill-rule:nonzero;stroke:none"
           id="path1041"
           inkscape:connector-curvature="0" /><path
           d="m 485.156,197.623 c 0,-4.977 -4.023,-9.014 -8.984,-9.014 -4.962,0 -8.985,4.037 -8.985,9.014 0,4.978 4.023,9.014 8.985,9.014 4.961,0 8.984,-4.036 8.984,-9.014"
           style="fill:#ffffff;fill-opacity:1;fill-rule:nonzero;stroke:none"
           id="path1043"
           inkscape:connector-curvature="0" /><path
           d="m 524.688,197.623 c -10e-4,-4.977 -4.023,-9.014 -8.985,-9.014 -4.963,0 -8.984,4.037 -8.984,9.014 0.001,4.978 4.021,9.014 8.984,9.014 4.962,0 8.985,-4.036 8.985,-9.014"
           style="fill:#ffffff;fill-opacity:1;fill-rule:nonzero;stroke:none"
           id="path1045"
           inkscape:connector-curvature="0" /><path
           d="m 564.219,197.623 c 0,-4.977 -4.022,-9.014 -8.984,-9.014 -4.962,0 -8.984,4.037 -8.984,9.014 0,4.978 4.022,9.014 8.984,9.014 4.962,0 8.984,-4.036 8.984,-9.014"
           style="fill:#ffffff;fill-opacity:1;fill-rule:nonzero;stroke:none"
           id="path1047"
           inkscape:connector-curvature="0" /><path
           d="m 595.242,188.622 c -0.158,-0.009 -0.316,-0.013 -0.476,-0.013 -4.962,0 -8.985,4.037 -8.985,9.014 0,4.978 4.023,9.014 8.985,9.014 0.16,0 0.318,-0.004 0.476,-0.013 z"
           style="fill:#ffffff;fill-opacity:1;fill-rule:nonzero;stroke:none"
           id="path1049"
           inkscape:connector-curvature="0" /><path
           d="m -0.016,246.113 c 0.585,0.119 1.19,0.183 1.809,0.183 4.962,0 8.985,-4.035 8.985,-9.014 -0.001,-4.978 -4.023,-9.012 -8.985,-9.012 -0.619,0 -1.224,0.062 -1.809,0.182 z"
           style="fill:#ffffff;fill-opacity:1;fill-rule:nonzero;stroke:none"
           id="path1051"
           inkscape:connector-curvature="0" /><path
           d="m 50.31,237.282 c -0.001,-4.978 -4.023,-9.012 -8.985,-9.012 -4.962,0 -8.984,4.035 -8.984,9.012 0,4.979 4.022,9.013 8.984,9.014 4.962,0 8.985,-4.035 8.985,-9.014"
           style="fill:#ffffff;fill-opacity:1;fill-rule:nonzero;stroke:none"
           id="path1053"
           inkscape:connector-curvature="0" /><path
           d="m 89.841,237.282 c 0,-4.978 -4.023,-9.012 -8.984,-9.012 -4.963,0 -8.985,4.035 -8.985,9.012 0.001,4.979 4.023,9.013 8.984,9.014 4.962,0 8.985,-4.035 8.985,-9.014"
           style="fill:#ffffff;fill-opacity:1;fill-rule:nonzero;stroke:none"
           id="path1055"
           inkscape:connector-curvature="0" /><path
           d="m 129.373,237.282 c -10e-4,-4.978 -4.023,-9.012 -8.985,-9.012 -4.962,0 -8.985,4.035 -8.985,9.012 0,4.979 4.023,9.013 8.985,9.014 4.963,0 8.985,-4.035 8.985,-9.014"
           style="fill:#ffffff;fill-opacity:1;fill-rule:nonzero;stroke:none"
           id="path1057"
           inkscape:connector-curvature="0" /><path
           d="m 168.903,237.282 c 0,-4.978 -4.022,-9.012 -8.983,-9.012 -4.962,0 -8.985,4.035 -8.984,9.012 0,4.979 4.022,9.013 8.983,9.014 4.962,0 8.985,-4.035 8.984,-9.014"
           style="fill:#ffffff;fill-opacity:1;fill-rule:nonzero;stroke:none"
           id="path1059"
           inkscape:connector-curvature="0" /><path
           d="m 208.436,237.282 c -0.001,-4.978 -4.023,-9.012 -8.985,-9.012 -4.962,0 -8.984,4.035 -8.984,9.012 0,4.979 4.022,9.013 8.984,9.014 4.962,0 8.985,-4.035 8.985,-9.014"
           style="fill:#ffffff;fill-opacity:1;fill-rule:nonzero;stroke:none"
           id="path1061"
           inkscape:connector-curvature="0" /><path
           d="m 247.967,237.282 c 0,-4.978 -4.023,-9.012 -8.984,-9.012 -4.962,0 -8.985,4.035 -8.985,9.012 0,4.979 4.023,9.013 8.984,9.014 4.963,0 8.985,-4.035 8.985,-9.014"
           style="fill:#ffffff;fill-opacity:1;fill-rule:nonzero;stroke:none"
           id="path1063"
           inkscape:connector-curvature="0" /><path
           d="m 287.499,237.282 c 0,-4.978 -4.023,-9.012 -8.985,-9.012 -4.962,0 -8.985,4.035 -8.985,9.012 10e-4,4.979 4.023,9.013 8.985,9.014 4.962,0 8.985,-4.035 8.985,-9.014"
           style="fill:#ffffff;fill-opacity:1;fill-rule:nonzero;stroke:none"
           id="path1065"
           inkscape:connector-curvature="0" /><path
           d="m 327.03,237.282 c 0,-4.978 -4.023,-9.012 -8.985,-9.012 -4.962,0 -8.984,4.035 -8.984,9.012 0,4.979 4.022,9.013 8.984,9.014 4.963,0 8.985,-4.035 8.985,-9.014"
           style="fill:#ffffff;fill-opacity:1;fill-rule:nonzero;stroke:none"
           id="path1067"
           inkscape:connector-curvature="0" /><path
           d="m 366.563,237.282 c 0,-4.978 -4.024,-9.012 -8.986,-9.012 -4.961,0 -8.983,4.035 -8.983,9.012 0,4.979 4.022,9.013 8.983,9.014 4.962,0 8.986,-4.035 8.986,-9.014"
           style="fill:#ffffff;fill-opacity:1;fill-rule:nonzero;stroke:none"
           id="path1069"
           inkscape:connector-curvature="0" /><path
           d="m 406.093,237.282 c 0,-4.978 -4.022,-9.012 -8.986,-9.012 -4.961,0 -8.983,4.035 -8.983,9.012 10e-4,4.979 4.022,9.013 8.983,9.014 4.964,0 8.986,-4.035 8.986,-9.014"
           style="fill:#ffffff;fill-opacity:1;fill-rule:nonzero;stroke:none"
           id="path1071"
           inkscape:connector-curvature="0" /><path
           d="m 445.625,237.282 c -10e-4,-4.978 -4.022,-9.012 -8.984,-9.012 -4.963,0 -8.984,4.035 -8.984,9.012 0,4.979 4.021,9.013 8.983,9.014 4.963,0 8.985,-4.035 8.985,-9.014"
           style="fill:#ffffff;fill-opacity:1;fill-rule:nonzero;stroke:none"
           id="path1073"
           inkscape:connector-curvature="0" /><path
           d="m 485.156,237.282 c 0,-4.978 -4.023,-9.012 -8.984,-9.012 -4.962,0 -8.985,4.035 -8.985,9.012 0,4.979 4.023,9.013 8.985,9.014 4.961,0 8.984,-4.035 8.984,-9.014"
           style="fill:#ffffff;fill-opacity:1;fill-rule:nonzero;stroke:none"
           id="path1075"
           inkscape:connector-curvature="0" /><path
           d="m 524.688,237.282 c -10e-4,-4.978 -4.023,-9.012 -8.985,-9.012 -4.963,0 -8.984,4.035 -8.984,9.012 0.001,4.979 4.021,9.013 8.984,9.014 4.962,0 8.985,-4.035 8.985,-9.014"
           style="fill:#ffffff;fill-opacity:1;fill-rule:nonzero;stroke:none"
           id="path1077"
           inkscape:connector-curvature="0" /><path
           d="m 564.219,237.282 c 0,-4.978 -4.022,-9.012 -8.984,-9.012 -4.962,0 -8.984,4.035 -8.984,9.012 0,4.979 4.022,9.013 8.984,9.014 4.962,0 8.984,-4.035 8.984,-9.014"
           style="fill:#ffffff;fill-opacity:1;fill-rule:nonzero;stroke:none"
           id="path1079"
           inkscape:connector-curvature="0" /><path
           d="m 595.242,228.282 c -0.158,-0.009 -0.316,-0.012 -0.476,-0.012 -4.962,0 -8.985,4.035 -8.985,9.012 0,4.979 4.023,9.013 8.985,9.014 0.16,0 0.318,-0.004 0.476,-0.013 z"
           style="fill:#ffffff;fill-opacity:1;fill-rule:nonzero;stroke:none"
           id="path1081"
           inkscape:connector-curvature="0" /><path
           d="m -0.016,285.772 c 0.585,0.121 1.19,0.183 1.809,0.183 4.962,0 8.985,-4.036 8.985,-9.013 -0.001,-4.979 -4.023,-9.013 -8.985,-9.013 -0.619,0 -1.224,0.062 -1.809,0.183 z"
           style="fill:#ffffff;fill-opacity:1;fill-rule:nonzero;stroke:none"
           id="path1083"
           inkscape:connector-curvature="0" /><path
           d="m 50.31,276.942 c -0.001,-4.979 -4.023,-9.013 -8.985,-9.013 -4.962,-10e-4 -8.984,4.035 -8.984,9.011 0,4.98 4.022,9.014 8.984,9.015 4.962,0 8.985,-4.036 8.985,-9.013"
           style="fill:#ffffff;fill-opacity:1;fill-rule:nonzero;stroke:none"
           id="path1085"
           inkscape:connector-curvature="0" /><path
           d="m 89.841,276.942 c 0,-4.979 -4.023,-9.013 -8.984,-9.013 -4.963,-10e-4 -8.985,4.035 -8.985,9.011 0.001,4.98 4.023,9.014 8.984,9.015 4.962,0 8.985,-4.036 8.985,-9.013"
           style="fill:#ffffff;fill-opacity:1;fill-rule:nonzero;stroke:none"
           id="path1087"
           inkscape:connector-curvature="0" /><path
           d="m 129.373,276.942 c -10e-4,-4.979 -4.023,-9.013 -8.985,-9.013 -4.962,-10e-4 -8.985,4.035 -8.985,9.011 0,4.98 4.023,9.014 8.985,9.015 4.963,0 8.985,-4.036 8.985,-9.013"
           style="fill:#ffffff;fill-opacity:1;fill-rule:nonzero;stroke:none"
           id="path1089"
           inkscape:connector-curvature="0" /><path
           d="m 168.903,276.942 c 0,-4.979 -4.022,-9.013 -8.983,-9.013 -4.962,-10e-4 -8.985,4.035 -8.984,9.011 0,4.98 4.022,9.014 8.983,9.015 4.962,0 8.985,-4.036 8.984,-9.013"
           style="fill:#ffffff;fill-opacity:1;fill-rule:nonzero;stroke:none"
           id="path1091"
           inkscape:connector-curvature="0" /><path
           d="m 208.436,276.942 c -0.001,-4.979 -4.023,-9.013 -8.985,-9.013 -4.962,-10e-4 -8.984,4.035 -8.984,9.011 0,4.98 4.022,9.014 8.984,9.015 4.962,0 8.985,-4.036 8.985,-9.013"
           style="fill:#ffffff;fill-opacity:1;fill-rule:nonzero;stroke:none"
           id="path1093"
           inkscape:connector-curvature="0" /><path
           d="m 247.967,276.942 c 0,-4.979 -4.023,-9.013 -8.984,-9.013 -4.962,-10e-4 -8.985,4.035 -8.985,9.011 0,4.98 4.023,9.014 8.984,9.015 4.963,0 8.985,-4.036 8.985,-9.013"
           style="fill:#ffffff;fill-opacity:1;fill-rule:nonzero;stroke:none"
           id="path1095"
           inkscape:connector-curvature="0" /><path
           d="m 287.499,276.942 c 0,-4.979 -4.023,-9.013 -8.985,-9.013 -4.962,-10e-4 -8.985,4.035 -8.985,9.011 10e-4,4.98 4.023,9.014 8.985,9.015 4.962,0 8.985,-4.036 8.985,-9.013"
           style="fill:#ffffff;fill-opacity:1;fill-rule:nonzero;stroke:none"
           id="path1097"
           inkscape:connector-curvature="0" /><path
           d="m 327.03,276.942 c 0,-4.979 -4.023,-9.013 -8.985,-9.013 -4.962,-10e-4 -8.984,4.035 -8.984,9.011 0,4.98 4.022,9.014 8.984,9.015 4.963,0 8.985,-4.036 8.985,-9.013"
           style="fill:#ffffff;fill-opacity:1;fill-rule:nonzero;stroke:none"
           id="path1099"
           inkscape:connector-curvature="0" /><path
           d="m 366.563,276.942 c 0,-4.979 -4.024,-9.013 -8.986,-9.013 -4.961,-10e-4 -8.983,4.035 -8.983,9.011 0,4.98 4.022,9.014 8.983,9.015 4.962,0 8.986,-4.036 8.986,-9.013"
           style="fill:#ffffff;fill-opacity:1;fill-rule:nonzero;stroke:none"
           id="path1101"
           inkscape:connector-curvature="0" /><path
           d="m 406.093,276.942 c 0,-4.979 -4.022,-9.013 -8.986,-9.013 -4.961,-10e-4 -8.983,4.035 -8.983,9.011 10e-4,4.98 4.022,9.014 8.983,9.015 4.964,0 8.986,-4.036 8.986,-9.013"
           style="fill:#ffffff;fill-opacity:1;fill-rule:nonzero;stroke:none"
           id="path1103"
           inkscape:connector-curvature="0" /><path
           d="m 445.625,276.942 c -10e-4,-4.979 -4.022,-9.013 -8.984,-9.013 -4.963,-10e-4 -8.984,4.035 -8.984,9.011 0,4.98 4.021,9.014 8.983,9.015 4.963,0 8.985,-4.036 8.985,-9.013"
           style="fill:#ffffff;fill-opacity:1;fill-rule:nonzero;stroke:none"
           id="path1105"
           inkscape:connector-curvature="0" /><path
           d="m 485.156,276.942 c 0,-4.979 -4.023,-9.013 -8.984,-9.013 -4.962,-10e-4 -8.985,4.035 -8.985,9.011 0,4.98 4.023,9.014 8.985,9.015 4.961,0 8.984,-4.036 8.984,-9.013"
           style="fill:#ffffff;fill-opacity:1;fill-rule:nonzero;stroke:none"
           id="path1107"
           inkscape:connector-curvature="0" /><path
           d="m 524.688,276.942 c -10e-4,-4.979 -4.023,-9.013 -8.985,-9.013 -4.963,-10e-4 -8.984,4.035 -8.984,9.011 0.001,4.98 4.021,9.014 8.984,9.015 4.962,0 8.985,-4.036 8.985,-9.013"
           style="fill:#ffffff;fill-opacity:1;fill-rule:nonzero;stroke:none"
           id="path1109"
           inkscape:connector-curvature="0" /><path
           d="m 564.219,276.942 c 0,-4.979 -4.022,-9.013 -8.984,-9.013 -4.962,-10e-4 -8.984,4.035 -8.984,9.011 0,4.98 4.022,9.014 8.984,9.015 4.962,0 8.984,-4.036 8.984,-9.013"
           style="fill:#ffffff;fill-opacity:1;fill-rule:nonzero;stroke:none"
           id="path1111"
           inkscape:connector-curvature="0" /><path
           d="m 595.242,267.941 c -0.158,-0.008 -0.316,-0.012 -0.476,-0.012 -4.962,-10e-4 -8.985,4.035 -8.985,9.011 0,4.98 4.023,9.014 8.985,9.015 0.16,0 0.318,-0.004 0.476,-0.013 z"
           style="fill:#ffffff;fill-opacity:1;fill-rule:nonzero;stroke:none"
           id="path1113"
           inkscape:connector-curvature="0" /><path
           d="m -0.016,325.431 c 0.585,0.12 1.19,0.183 1.809,0.183 4.962,0 8.985,-4.036 8.985,-9.013 -0.001,-4.978 -4.023,-9.013 -8.985,-9.013 -0.619,0 -1.224,0.062 -1.809,0.183 z"
           style="fill:#ffffff;fill-opacity:1;fill-rule:nonzero;stroke:none"
           id="path1115"
           inkscape:connector-curvature="0" /><path
           d="m 50.31,316.601 c -0.001,-4.978 -4.023,-9.013 -8.985,-9.013 -4.962,-0.001 -8.984,4.036 -8.984,9.013 0,4.978 4.022,9.013 8.984,9.013 4.962,0 8.985,-4.036 8.985,-9.013"
           style="fill:#ffffff;fill-opacity:1;fill-rule:nonzero;stroke:none"
           id="path1117"
           inkscape:connector-curvature="0" /><path
           d="m 89.841,316.601 c 0,-4.978 -4.023,-9.013 -8.984,-9.013 -4.963,-0.001 -8.985,4.036 -8.985,9.013 0.001,4.978 4.023,9.013 8.984,9.013 4.962,0 8.985,-4.036 8.985,-9.013"
           style="fill:#ffffff;fill-opacity:1;fill-rule:nonzero;stroke:none"
           id="path1119"
           inkscape:connector-curvature="0" /><path
           d="m 129.373,316.601 c -10e-4,-4.978 -4.023,-9.013 -8.985,-9.013 -4.962,-0.001 -8.985,4.036 -8.985,9.013 0,4.978 4.023,9.013 8.985,9.013 4.963,0 8.985,-4.036 8.985,-9.013"
           style="fill:#ffffff;fill-opacity:1;fill-rule:nonzero;stroke:none"
           id="path1121"
           inkscape:connector-curvature="0" /><path
           d="m 168.903,316.601 c 0,-4.978 -4.022,-9.013 -8.983,-9.013 -4.962,-0.001 -8.985,4.036 -8.984,9.013 0,4.978 4.022,9.013 8.983,9.013 4.962,0 8.985,-4.036 8.984,-9.013"
           style="fill:#ffffff;fill-opacity:1;fill-rule:nonzero;stroke:none"
           id="path1123"
           inkscape:connector-curvature="0" /><path
           d="m 208.436,316.601 c -0.001,-4.978 -4.023,-9.013 -8.985,-9.013 -4.962,-0.001 -8.984,4.036 -8.984,9.013 0,4.978 4.022,9.013 8.984,9.013 4.962,0 8.985,-4.036 8.985,-9.013"
           style="fill:#ffffff;fill-opacity:1;fill-rule:nonzero;stroke:none"
           id="path1125"
           inkscape:connector-curvature="0" /><path
           d="m 247.967,316.601 c 0,-4.978 -4.023,-9.013 -8.984,-9.013 -4.962,-0.001 -8.985,4.036 -8.985,9.013 0,4.978 4.023,9.013 8.984,9.013 4.963,0 8.985,-4.036 8.985,-9.013"
           style="fill:#ffffff;fill-opacity:1;fill-rule:nonzero;stroke:none"
           id="path1127"
           inkscape:connector-curvature="0" /><path
           d="m 287.499,316.601 c 0,-4.978 -4.023,-9.013 -8.985,-9.013 -4.962,-0.001 -8.985,4.036 -8.985,9.013 10e-4,4.978 4.023,9.013 8.985,9.013 4.962,0 8.985,-4.036 8.985,-9.013"
           style="fill:#ffffff;fill-opacity:1;fill-rule:nonzero;stroke:none"
           id="path1129"
           inkscape:connector-curvature="0" /><path
           d="m 327.03,316.601 c 0,-4.978 -4.023,-9.013 -8.985,-9.013 -4.962,-0.001 -8.984,4.036 -8.984,9.013 0,4.978 4.022,9.013 8.984,9.013 4.963,0 8.985,-4.036 8.985,-9.013"
           style="fill:#ffffff;fill-opacity:1;fill-rule:nonzero;stroke:none"
           id="path1131"
           inkscape:connector-curvature="0" /><path
           d="m 366.563,316.601 c 0,-4.978 -4.024,-9.013 -8.986,-9.013 -4.961,-0.001 -8.983,4.036 -8.983,9.013 0,4.978 4.022,9.013 8.983,9.013 4.962,0 8.986,-4.036 8.986,-9.013"
           style="fill:#ffffff;fill-opacity:1;fill-rule:nonzero;stroke:none"
           id="path1133"
           inkscape:connector-curvature="0" /><path
           d="m 406.093,316.601 c 0,-4.978 -4.022,-9.013 -8.986,-9.013 -4.961,-0.001 -8.983,4.036 -8.983,9.013 10e-4,4.978 4.022,9.013 8.983,9.013 4.964,0 8.986,-4.036 8.986,-9.013"
           style="fill:#ffffff;fill-opacity:1;fill-rule:nonzero;stroke:none"
           id="path1135"
           inkscape:connector-curvature="0" /><path
           d="m 445.625,316.601 c -10e-4,-4.978 -4.022,-9.013 -8.984,-9.013 -4.963,-0.001 -8.984,4.036 -8.984,9.013 0,4.978 4.021,9.013 8.983,9.013 4.963,0 8.985,-4.036 8.985,-9.013"
           style="fill:#ffffff;fill-opacity:1;fill-rule:nonzero;stroke:none"
           id="path1137"
           inkscape:connector-curvature="0" /><path
           d="m 485.156,316.601 c 0,-4.978 -4.023,-9.013 -8.984,-9.013 -4.962,-0.001 -8.985,4.036 -8.985,9.013 0,4.978 4.023,9.013 8.985,9.013 4.961,0 8.984,-4.036 8.984,-9.013"
           style="fill:#ffffff;fill-opacity:1;fill-rule:nonzero;stroke:none"
           id="path1139"
           inkscape:connector-curvature="0" /><path
           d="m 524.688,316.601 c -10e-4,-4.978 -4.023,-9.013 -8.985,-9.013 -4.963,-0.001 -8.984,4.036 -8.984,9.013 0.001,4.978 4.021,9.013 8.984,9.013 4.962,0 8.985,-4.036 8.985,-9.013"
           style="fill:#ffffff;fill-opacity:1;fill-rule:nonzero;stroke:none"
           id="path1141"
           inkscape:connector-curvature="0" /><path
           d="m 564.219,316.601 c 0,-4.978 -4.022,-9.013 -8.984,-9.013 -4.962,-0.001 -8.984,4.036 -8.984,9.013 0,4.978 4.022,9.013 8.984,9.013 4.962,0 8.984,-4.036 8.984,-9.013"
           style="fill:#ffffff;fill-opacity:1;fill-rule:nonzero;stroke:none"
           id="path1143"
           inkscape:connector-curvature="0" /><path
           d="m 595.242,307.601 c -0.158,-0.009 -0.316,-0.013 -0.476,-0.013 -4.962,-0.001 -8.985,4.036 -8.985,9.013 0,4.978 4.023,9.013 8.985,9.013 0.16,0 0.318,-0.004 0.476,-0.011 z"
           style="fill:#ffffff;fill-opacity:1;fill-rule:nonzero;stroke:none"
           id="path1145"
           inkscape:connector-curvature="0" /><path
           d="m -0.016,365.09 c 0.585,0.12 1.19,0.183 1.809,0.183 4.962,10e-4 8.985,-4.035 8.985,-9.012 -0.001,-4.979 -4.023,-9.014 -8.985,-9.014 -0.619,0 -1.224,0.063 -1.809,0.182 z"
           style="fill:#ffffff;fill-opacity:1;fill-rule:nonzero;stroke:none"
           id="path1147"
           inkscape:connector-curvature="0" /><path
           d="m 50.31,356.261 c -0.001,-4.979 -4.023,-9.014 -8.985,-9.014 -4.962,-0.001 -8.984,4.035 -8.984,9.013 0,4.978 4.022,9.013 8.984,9.013 4.962,10e-4 8.985,-4.035 8.985,-9.012"
           style="fill:#ffffff;fill-opacity:1;fill-rule:nonzero;stroke:none"
           id="path1149"
           inkscape:connector-curvature="0" /><path
           d="m 89.841,356.261 c 0,-4.979 -4.023,-9.014 -8.984,-9.014 -4.963,-0.001 -8.985,4.035 -8.985,9.013 0.001,4.978 4.023,9.013 8.984,9.013 4.962,10e-4 8.985,-4.035 8.985,-9.012"
           style="fill:#ffffff;fill-opacity:1;fill-rule:nonzero;stroke:none"
           id="path1151"
           inkscape:connector-curvature="0" /><path
           d="m 129.373,356.261 c -10e-4,-4.979 -4.023,-9.014 -8.985,-9.014 -4.962,-0.001 -8.985,4.035 -8.985,9.013 0,4.978 4.023,9.013 8.985,9.013 4.963,10e-4 8.985,-4.035 8.985,-9.012"
           style="fill:#ffffff;fill-opacity:1;fill-rule:nonzero;stroke:none"
           id="path1153"
           inkscape:connector-curvature="0" /><path
           d="m 168.903,356.261 c 0,-4.979 -4.022,-9.014 -8.983,-9.014 -4.962,-0.001 -8.985,4.035 -8.984,9.013 0,4.978 4.022,9.013 8.983,9.013 4.962,10e-4 8.985,-4.035 8.984,-9.012"
           style="fill:#ffffff;fill-opacity:1;fill-rule:nonzero;stroke:none"
           id="path1155"
           inkscape:connector-curvature="0" /><path
           d="m 208.436,356.261 c -0.001,-4.979 -4.023,-9.014 -8.985,-9.014 -4.962,-0.001 -8.984,4.035 -8.984,9.013 0,4.978 4.022,9.013 8.984,9.013 4.962,10e-4 8.985,-4.035 8.985,-9.012"
           style="fill:#ffffff;fill-opacity:1;fill-rule:nonzero;stroke:none"
           id="path1157"
           inkscape:connector-curvature="0" /><path
           d="m 247.967,356.261 c 0,-4.979 -4.023,-9.014 -8.984,-9.014 -4.962,-0.001 -8.985,4.035 -8.985,9.013 0,4.978 4.023,9.013 8.984,9.013 4.963,10e-4 8.985,-4.035 8.985,-9.012"
           style="fill:#ffffff;fill-opacity:1;fill-rule:nonzero;stroke:none"
           id="path1159"
           inkscape:connector-curvature="0" /><path
           d="m 287.499,356.261 c 0,-4.979 -4.023,-9.014 -8.985,-9.014 -4.962,-0.001 -8.985,4.035 -8.985,9.013 10e-4,4.978 4.023,9.013 8.985,9.013 4.962,10e-4 8.985,-4.035 8.985,-9.012"
           style="fill:#ffffff;fill-opacity:1;fill-rule:nonzero;stroke:none"
           id="path1161"
           inkscape:connector-curvature="0" /><path
           d="m 327.03,356.261 c 0,-4.979 -4.023,-9.014 -8.985,-9.014 -4.962,-0.001 -8.984,4.035 -8.984,9.013 0,4.978 4.022,9.013 8.984,9.013 4.963,10e-4 8.985,-4.035 8.985,-9.012"
           style="fill:#ffffff;fill-opacity:1;fill-rule:nonzero;stroke:none"
           id="path1163"
           inkscape:connector-curvature="0" /><path
           d="m 366.563,356.261 c 0,-4.979 -4.024,-9.014 -8.986,-9.014 -4.961,-0.001 -8.983,4.035 -8.983,9.013 0,4.978 4.022,9.013 8.983,9.013 4.962,10e-4 8.986,-4.035 8.986,-9.012"
           style="fill:#ffffff;fill-opacity:1;fill-rule:nonzero;stroke:none"
           id="path1165"
           inkscape:connector-curvature="0" /><path
           d="m 406.093,356.261 c 0,-4.979 -4.022,-9.014 -8.986,-9.014 -4.961,-0.001 -8.983,4.035 -8.983,9.013 10e-4,4.978 4.022,9.013 8.983,9.013 4.964,10e-4 8.986,-4.035 8.986,-9.012"
           style="fill:#ffffff;fill-opacity:1;fill-rule:nonzero;stroke:none"
           id="path1167"
           inkscape:connector-curvature="0" /><path
           d="m 445.625,356.261 c -10e-4,-4.979 -4.022,-9.014 -8.984,-9.014 -4.963,-0.001 -8.984,4.035 -8.984,9.013 0,4.978 4.021,9.013 8.983,9.013 4.963,10e-4 8.985,-4.035 8.985,-9.012"
           style="fill:#ffffff;fill-opacity:1;fill-rule:nonzero;stroke:none"
           id="path1169"
           inkscape:connector-curvature="0" /><path
           d="m 485.156,356.261 c 0,-4.979 -4.023,-9.014 -8.984,-9.014 -4.962,-0.001 -8.985,4.035 -8.985,9.013 0,4.978 4.023,9.013 8.985,9.013 4.961,10e-4 8.984,-4.035 8.984,-9.012"
           style="fill:#ffffff;fill-opacity:1;fill-rule:nonzero;stroke:none"
           id="path1171"
           inkscape:connector-curvature="0" /><path
           d="m 524.688,356.261 c -10e-4,-4.979 -4.023,-9.014 -8.985,-9.014 -4.963,-0.001 -8.984,4.035 -8.984,9.013 0.001,4.978 4.021,9.013 8.984,9.013 4.962,10e-4 8.985,-4.035 8.985,-9.012"
           style="fill:#ffffff;fill-opacity:1;fill-rule:nonzero;stroke:none"
           id="path1173"
           inkscape:connector-curvature="0" /><path
           d="m 564.219,356.261 c 0,-4.979 -4.022,-9.014 -8.984,-9.014 -4.962,-0.001 -8.984,4.035 -8.984,9.013 0,4.978 4.022,9.013 8.984,9.013 4.962,10e-4 8.984,-4.035 8.984,-9.012"
           style="fill:#ffffff;fill-opacity:1;fill-rule:nonzero;stroke:none"
           id="path1175"
           inkscape:connector-curvature="0" /><path
           d="m 595.242,347.259 c -0.158,-0.008 -0.316,-0.012 -0.476,-0.012 -4.962,-0.001 -8.985,4.035 -8.985,9.013 0,4.978 4.023,9.013 8.985,9.013 0.16,0 0.318,-0.003 0.476,-0.012 z"
           style="fill:#ffffff;fill-opacity:1;fill-rule:nonzero;stroke:none"
           id="path1177"
           inkscape:connector-curvature="0" /><path
           d="m -0.016,404.75 c 0.585,0.12 1.19,0.183 1.809,0.183 4.962,0 8.985,-4.036 8.985,-9.014 -0.001,-4.978 -4.023,-9.013 -8.985,-9.013 -0.619,0 -1.224,0.063 -1.809,0.183 z"
           style="fill:#ffffff;fill-opacity:1;fill-rule:nonzero;stroke:none"
           id="path1179"
           inkscape:connector-curvature="0" /><path
           d="m 50.31,395.919 c -0.001,-4.978 -4.023,-9.013 -8.985,-9.013 -4.962,0 -8.984,4.036 -8.984,9.013 0,4.978 4.022,9.013 8.984,9.014 4.962,0 8.985,-4.036 8.985,-9.014"
           style="fill:#ffffff;fill-opacity:1;fill-rule:nonzero;stroke:none"
           id="path1181"
           inkscape:connector-curvature="0" /><path
           d="m 89.841,395.919 c 0,-4.978 -4.023,-9.013 -8.984,-9.013 -4.963,0 -8.985,4.036 -8.985,9.013 0.001,4.978 4.023,9.013 8.984,9.014 4.962,0 8.985,-4.036 8.985,-9.014"
           style="fill:#ffffff;fill-opacity:1;fill-rule:nonzero;stroke:none"
           id="path1183"
           inkscape:connector-curvature="0" /><path
           d="m 129.373,395.919 c -10e-4,-4.978 -4.023,-9.013 -8.985,-9.013 -4.962,0 -8.985,4.036 -8.985,9.013 0,4.978 4.023,9.013 8.985,9.014 4.963,0 8.985,-4.036 8.985,-9.014"
           style="fill:#ffffff;fill-opacity:1;fill-rule:nonzero;stroke:none"
           id="path1185"
           inkscape:connector-curvature="0" /><path
           d="m 168.903,395.919 c 0,-4.978 -4.022,-9.013 -8.983,-9.013 -4.962,0 -8.985,4.036 -8.984,9.013 0,4.978 4.022,9.013 8.983,9.014 4.962,0 8.985,-4.036 8.984,-9.014"
           style="fill:#ffffff;fill-opacity:1;fill-rule:nonzero;stroke:none"
           id="path1187"
           inkscape:connector-curvature="0" /><path
           d="m 208.436,395.919 c -0.001,-4.978 -4.023,-9.013 -8.985,-9.013 -4.962,0 -8.984,4.036 -8.984,9.013 0,4.978 4.022,9.013 8.984,9.014 4.962,0 8.985,-4.036 8.985,-9.014"
           style="fill:#ffffff;fill-opacity:1;fill-rule:nonzero;stroke:none"
           id="path1189"
           inkscape:connector-curvature="0" /><path
           d="m 247.967,395.919 c 0,-4.978 -4.023,-9.013 -8.984,-9.013 -4.962,0 -8.985,4.036 -8.985,9.013 0,4.978 4.023,9.013 8.984,9.014 4.963,0 8.985,-4.036 8.985,-9.014"
           style="fill:#ffffff;fill-opacity:1;fill-rule:nonzero;stroke:none"
           id="path1191"
           inkscape:connector-curvature="0" /><path
           d="m 287.499,395.919 c 0,-4.978 -4.023,-9.013 -8.985,-9.013 -4.962,0 -8.985,4.036 -8.985,9.013 10e-4,4.978 4.023,9.013 8.985,9.014 4.962,0 8.985,-4.036 8.985,-9.014"
           style="fill:#ffffff;fill-opacity:1;fill-rule:nonzero;stroke:none"
           id="path1193"
           inkscape:connector-curvature="0" /><path
           d="m 327.03,395.919 c 0,-4.978 -4.023,-9.013 -8.985,-9.013 -4.962,0 -8.984,4.036 -8.984,9.013 0,4.978 4.022,9.013 8.984,9.014 4.963,0 8.985,-4.036 8.985,-9.014"
           style="fill:#ffffff;fill-opacity:1;fill-rule:nonzero;stroke:none"
           id="path1195"
           inkscape:connector-curvature="0" /><path
           d="m 366.563,395.919 c 0,-4.978 -4.024,-9.013 -8.986,-9.013 -4.961,0 -8.983,4.036 -8.983,9.013 0,4.978 4.022,9.013 8.983,9.014 4.962,0 8.986,-4.036 8.986,-9.014"
           style="fill:#ffffff;fill-opacity:1;fill-rule:nonzero;stroke:none"
           id="path1197"
           inkscape:connector-curvature="0" /><path
           d="m 406.093,395.919 c 0,-4.978 -4.022,-9.013 -8.986,-9.013 -4.961,0 -8.983,4.036 -8.983,9.013 10e-4,4.978 4.022,9.013 8.983,9.014 4.964,0 8.986,-4.036 8.986,-9.014"
           style="fill:#ffffff;fill-opacity:1;fill-rule:nonzero;stroke:none"
           id="path1199"
           inkscape:connector-curvature="0" /><path
           d="m 445.625,395.919 c -10e-4,-4.978 -4.022,-9.013 -8.984,-9.013 -4.963,0 -8.984,4.036 -8.984,9.013 0,4.978 4.021,9.013 8.983,9.014 4.963,0 8.985,-4.036 8.985,-9.014"
           style="fill:#ffffff;fill-opacity:1;fill-rule:nonzero;stroke:none"
           id="path1201"
           inkscape:connector-curvature="0" /><path
           d="m 485.156,395.919 c 0,-4.978 -4.023,-9.013 -8.984,-9.013 -4.962,0 -8.985,4.036 -8.985,9.013 0,4.978 4.023,9.013 8.985,9.014 4.961,0 8.984,-4.036 8.984,-9.014"
           style="fill:#ffffff;fill-opacity:1;fill-rule:nonzero;stroke:none"
           id="path1203"
           inkscape:connector-curvature="0" /><path
           d="m 524.688,395.919 c -10e-4,-4.978 -4.023,-9.013 -8.985,-9.013 -4.963,0 -8.984,4.036 -8.984,9.013 0.001,4.978 4.021,9.013 8.984,9.014 4.962,0 8.985,-4.036 8.985,-9.014"
           style="fill:#ffffff;fill-opacity:1;fill-rule:nonzero;stroke:none"
           id="path1205"
           inkscape:connector-curvature="0" /><path
           d="m 564.219,395.919 c 0,-4.978 -4.022,-9.013 -8.984,-9.013 -4.962,0 -8.984,4.036 -8.984,9.013 0,4.978 4.022,9.013 8.984,9.014 4.962,0 8.984,-4.036 8.984,-9.014"
           style="fill:#ffffff;fill-opacity:1;fill-rule:nonzero;stroke:none"
           id="path1207"
           inkscape:connector-curvature="0" /><path
           d="m 595.242,386.918 c -0.158,-0.008 -0.316,-0.012 -0.476,-0.012 -4.962,0 -8.985,4.036 -8.985,9.013 0,4.978 4.023,9.013 8.985,9.014 0.16,0 0.318,-0.005 0.476,-0.013 z"
           style="fill:#ffffff;fill-opacity:1;fill-rule:nonzero;stroke:none"
           id="path1209"
           inkscape:connector-curvature="0" /><path
           d="m -0.016,444.409 c 0.585,0.12 1.19,0.183 1.809,0.183 4.962,0 8.985,-4.036 8.985,-9.013 -0.001,-4.978 -4.023,-9.014 -8.985,-9.014 -0.619,0 -1.224,0.063 -1.809,0.183 z"
           style="fill:#ffffff;fill-opacity:1;fill-rule:nonzero;stroke:none"
           id="path1211"
           inkscape:connector-curvature="0" /><path
           d="m 50.31,435.579 c -0.001,-4.978 -4.023,-9.014 -8.985,-9.014 -4.962,-10e-4 -8.984,4.037 -8.984,9.013 0,4.978 4.022,9.013 8.984,9.014 4.962,0 8.985,-4.036 8.985,-9.013"
           style="fill:#ffffff;fill-opacity:1;fill-rule:nonzero;stroke:none"
           id="path1213"
           inkscape:connector-curvature="0" /><path
           d="m 89.841,435.579 c 0,-4.978 -4.023,-9.014 -8.984,-9.014 -4.963,-10e-4 -8.985,4.037 -8.985,9.013 0.001,4.978 4.023,9.013 8.984,9.014 4.962,0 8.985,-4.036 8.985,-9.013"
           style="fill:#ffffff;fill-opacity:1;fill-rule:nonzero;stroke:none"
           id="path1215"
           inkscape:connector-curvature="0" /><path
           d="m 129.373,435.579 c -10e-4,-4.978 -4.023,-9.014 -8.985,-9.014 -4.962,-10e-4 -8.985,4.037 -8.985,9.013 0,4.978 4.023,9.013 8.985,9.014 4.963,0 8.985,-4.036 8.985,-9.013"
           style="fill:#ffffff;fill-opacity:1;fill-rule:nonzero;stroke:none"
           id="path1217"
           inkscape:connector-curvature="0" /><path
           d="m 168.903,435.579 c 0,-4.978 -4.022,-9.014 -8.983,-9.014 -4.962,-10e-4 -8.985,4.037 -8.984,9.013 0,4.978 4.022,9.013 8.983,9.014 4.962,0 8.985,-4.036 8.984,-9.013"
           style="fill:#ffffff;fill-opacity:1;fill-rule:nonzero;stroke:none"
           id="path1219"
           inkscape:connector-curvature="0" /><path
           d="m 208.436,435.579 c -0.001,-4.978 -4.023,-9.014 -8.985,-9.014 -4.962,-10e-4 -8.984,4.037 -8.984,9.013 0,4.978 4.022,9.013 8.984,9.014 4.962,0 8.985,-4.036 8.985,-9.013"
           style="fill:#ffffff;fill-opacity:1;fill-rule:nonzero;stroke:none"
           id="path1221"
           inkscape:connector-curvature="0" /><path
           d="m 247.967,435.579 c 0,-4.978 -4.023,-9.014 -8.984,-9.014 -4.962,-10e-4 -8.985,4.037 -8.985,9.013 0,4.978 4.023,9.013 8.984,9.014 4.963,0 8.985,-4.036 8.985,-9.013"
           style="fill:#ffffff;fill-opacity:1;fill-rule:nonzero;stroke:none"
           id="path1223"
           inkscape:connector-curvature="0" /><path
           d="m 287.499,435.579 c 0,-4.978 -4.023,-9.014 -8.985,-9.014 -4.962,-10e-4 -8.985,4.037 -8.985,9.013 10e-4,4.978 4.023,9.013 8.985,9.014 4.962,0 8.985,-4.036 8.985,-9.013"
           style="fill:#ffffff;fill-opacity:1;fill-rule:nonzero;stroke:none"
           id="path1225"
           inkscape:connector-curvature="0" /><path
           d="m 327.03,435.579 c 0,-4.978 -4.023,-9.014 -8.985,-9.014 -4.962,-10e-4 -8.984,4.037 -8.984,9.013 0,4.978 4.022,9.013 8.984,9.014 4.963,0 8.985,-4.036 8.985,-9.013"
           style="fill:#ffffff;fill-opacity:1;fill-rule:nonzero;stroke:none"
           id="path1227"
           inkscape:connector-curvature="0" /><path
           d="m 366.563,435.579 c 0,-4.978 -4.024,-9.014 -8.986,-9.014 -4.961,-10e-4 -8.983,4.037 -8.983,9.013 0,4.978 4.022,9.013 8.983,9.014 4.962,0 8.986,-4.036 8.986,-9.013"
           style="fill:#ffffff;fill-opacity:1;fill-rule:nonzero;stroke:none"
           id="path1229"
           inkscape:connector-curvature="0" /><path
           d="m 406.093,435.579 c 0,-4.978 -4.022,-9.014 -8.986,-9.014 -4.961,-10e-4 -8.983,4.037 -8.983,9.013 10e-4,4.978 4.022,9.013 8.983,9.014 4.964,0 8.986,-4.036 8.986,-9.013"
           style="fill:#ffffff;fill-opacity:1;fill-rule:nonzero;stroke:none"
           id="path1231"
           inkscape:connector-curvature="0" /><path
           d="m 445.625,435.579 c -10e-4,-4.978 -4.022,-9.014 -8.984,-9.014 -4.963,-10e-4 -8.984,4.037 -8.984,9.013 0,4.978 4.021,9.013 8.983,9.014 4.963,0 8.985,-4.036 8.985,-9.013"
           style="fill:#ffffff;fill-opacity:1;fill-rule:nonzero;stroke:none"
           id="path1233"
           inkscape:connector-curvature="0" /><path
           d="m 485.156,435.579 c 0,-4.978 -4.023,-9.014 -8.984,-9.014 -4.962,-10e-4 -8.985,4.037 -8.985,9.013 0,4.978 4.023,9.013 8.985,9.014 4.961,0 8.984,-4.036 8.984,-9.013"
           style="fill:#ffffff;fill-opacity:1;fill-rule:nonzero;stroke:none"
           id="path1235"
           inkscape:connector-curvature="0" /><path
           d="m 524.688,435.579 c -10e-4,-4.978 -4.023,-9.014 -8.985,-9.014 -4.963,-10e-4 -8.984,4.037 -8.984,9.013 0.001,4.978 4.021,9.013 8.984,9.014 4.962,0 8.985,-4.036 8.985,-9.013"
           style="fill:#ffffff;fill-opacity:1;fill-rule:nonzero;stroke:none"
           id="path1237"
           inkscape:connector-curvature="0" /><path
           d="m 564.219,435.579 c 0,-4.978 -4.022,-9.014 -8.984,-9.014 -4.962,-10e-4 -8.984,4.037 -8.984,9.013 0,4.978 4.022,9.013 8.984,9.014 4.962,0 8.984,-4.036 8.984,-9.013"
           style="fill:#ffffff;fill-opacity:1;fill-rule:nonzero;stroke:none"
           id="path1239"
           inkscape:connector-curvature="0" /><path
           d="m 595.242,426.577 c -0.158,-0.008 -0.316,-0.012 -0.476,-0.012 -4.962,-10e-4 -8.985,4.037 -8.985,9.013 0,4.978 4.023,9.013 8.985,9.014 0.16,0 0.318,-0.005 0.476,-0.013 z"
           style="fill:#ffffff;fill-opacity:1;fill-rule:nonzero;stroke:none"
           id="path1241"
           inkscape:connector-curvature="0" /><path
           d="m -0.016,484.068 c 0.585,0.12 1.19,0.183 1.809,0.183 4.962,0 8.985,-4.036 8.985,-9.013 -0.001,-4.979 -4.023,-9.014 -8.985,-9.014 -0.619,0 -1.224,0.063 -1.809,0.183 z"
           style="fill:#ffffff;fill-opacity:1;fill-rule:nonzero;stroke:none"
           id="path1243"
           inkscape:connector-curvature="0" /><path
           d="m 50.31,475.238 c -0.001,-4.979 -4.023,-9.014 -8.985,-9.014 -4.962,0 -8.984,4.037 -8.984,9.014 0,4.978 4.022,9.012 8.984,9.013 4.962,0 8.985,-4.036 8.985,-9.013"
           style="fill:#ffffff;fill-opacity:1;fill-rule:nonzero;stroke:none"
           id="path1245"
           inkscape:connector-curvature="0" /><path
           d="m 89.841,475.238 c 0,-4.979 -4.023,-9.014 -8.984,-9.014 -4.963,0 -8.985,4.037 -8.985,9.014 0.001,4.978 4.023,9.012 8.984,9.013 4.962,0 8.985,-4.036 8.985,-9.013"
           style="fill:#ffffff;fill-opacity:1;fill-rule:nonzero;stroke:none"
           id="path1247"
           inkscape:connector-curvature="0" /><path
           d="m 129.373,475.238 c -10e-4,-4.979 -4.023,-9.014 -8.985,-9.014 -4.962,0 -8.985,4.037 -8.985,9.014 0,4.978 4.023,9.012 8.985,9.013 4.963,0 8.985,-4.036 8.985,-9.013"
           style="fill:#ffffff;fill-opacity:1;fill-rule:nonzero;stroke:none"
           id="path1249"
           inkscape:connector-curvature="0" /><path
           d="m 168.903,475.238 c 0,-4.979 -4.022,-9.014 -8.983,-9.014 -4.962,0 -8.985,4.037 -8.984,9.014 0,4.978 4.022,9.012 8.983,9.013 4.962,0 8.985,-4.036 8.984,-9.013"
           style="fill:#ffffff;fill-opacity:1;fill-rule:nonzero;stroke:none"
           id="path1251"
           inkscape:connector-curvature="0" /><path
           d="m 208.436,475.238 c -0.001,-4.979 -4.023,-9.014 -8.985,-9.014 -4.962,0 -8.984,4.037 -8.984,9.014 0,4.978 4.022,9.012 8.984,9.013 4.962,0 8.985,-4.036 8.985,-9.013"
           style="fill:#ffffff;fill-opacity:1;fill-rule:nonzero;stroke:none"
           id="path1253"
           inkscape:connector-curvature="0" /><path
           d="m 247.967,475.238 c 0,-4.979 -4.023,-9.014 -8.984,-9.014 -4.962,0 -8.985,4.037 -8.985,9.014 0,4.978 4.023,9.012 8.984,9.013 4.963,0 8.985,-4.036 8.985,-9.013"
           style="fill:#ffffff;fill-opacity:1;fill-rule:nonzero;stroke:none"
           id="path1255"
           inkscape:connector-curvature="0" /><path
           d="m 287.499,475.238 c 0,-4.979 -4.023,-9.014 -8.985,-9.014 -4.962,0 -8.985,4.037 -8.985,9.014 10e-4,4.978 4.023,9.012 8.985,9.013 4.962,0 8.985,-4.036 8.985,-9.013"
           style="fill:#ffffff;fill-opacity:1;fill-rule:nonzero;stroke:none"
           id="path1257"
           inkscape:connector-curvature="0" /><path
           d="m 327.03,475.238 c 0,-4.979 -4.023,-9.014 -8.985,-9.014 -4.962,0 -8.984,4.037 -8.984,9.014 0,4.978 4.022,9.012 8.984,9.013 4.963,0 8.985,-4.036 8.985,-9.013"
           style="fill:#ffffff;fill-opacity:1;fill-rule:nonzero;stroke:none"
           id="path1259"
           inkscape:connector-curvature="0" /><path
           d="m 366.563,475.238 c 0,-4.979 -4.024,-9.014 -8.986,-9.014 -4.961,0 -8.983,4.037 -8.983,9.014 0,4.978 4.022,9.012 8.983,9.013 4.962,0 8.986,-4.036 8.986,-9.013"
           style="fill:#ffffff;fill-opacity:1;fill-rule:nonzero;stroke:none"
           id="path1261"
           inkscape:connector-curvature="0" /><path
           d="m 406.093,475.238 c 0,-4.979 -4.022,-9.014 -8.986,-9.014 -4.961,0 -8.983,4.037 -8.983,9.014 10e-4,4.978 4.022,9.012 8.983,9.013 4.964,0 8.986,-4.036 8.986,-9.013"
           style="fill:#ffffff;fill-opacity:1;fill-rule:nonzero;stroke:none"
           id="path1263"
           inkscape:connector-curvature="0" /><path
           d="m 445.625,475.238 c -10e-4,-4.979 -4.022,-9.014 -8.984,-9.014 -4.963,0 -8.984,4.037 -8.984,9.014 0,4.978 4.021,9.012 8.983,9.013 4.963,0 8.985,-4.036 8.985,-9.013"
           style="fill:#ffffff;fill-opacity:1;fill-rule:nonzero;stroke:none"
           id="path1265"
           inkscape:connector-curvature="0" /><path
           d="m 485.156,475.238 c 0,-4.979 -4.023,-9.014 -8.984,-9.014 -4.962,0 -8.985,4.037 -8.985,9.014 0,4.978 4.023,9.012 8.985,9.013 4.961,0 8.984,-4.036 8.984,-9.013"
           style="fill:#ffffff;fill-opacity:1;fill-rule:nonzero;stroke:none"
           id="path1267"
           inkscape:connector-curvature="0" /><path
           d="m 524.688,475.238 c -10e-4,-4.979 -4.023,-9.014 -8.985,-9.014 -4.963,0 -8.984,4.037 -8.984,9.014 0.001,4.978 4.021,9.012 8.984,9.013 4.962,0 8.985,-4.036 8.985,-9.013"
           style="fill:#ffffff;fill-opacity:1;fill-rule:nonzero;stroke:none"
           id="path1269"
           inkscape:connector-curvature="0" /><path
           d="m 564.219,475.238 c 0,-4.979 -4.022,-9.014 -8.984,-9.014 -4.962,0 -8.984,4.037 -8.984,9.014 0,4.978 4.022,9.012 8.984,9.013 4.962,0 8.984,-4.036 8.984,-9.013"
           style="fill:#ffffff;fill-opacity:1;fill-rule:nonzero;stroke:none"
           id="path1271"
           inkscape:connector-curvature="0" /><path
           d="m 595.242,466.237 c -0.158,-0.008 -0.316,-0.013 -0.476,-0.013 -4.962,0 -8.985,4.037 -8.985,9.014 0,4.978 4.023,9.012 8.985,9.013 0.16,0 0.318,-0.004 0.476,-0.012 z"
           style="fill:#ffffff;fill-opacity:1;fill-rule:nonzero;stroke:none"
           id="path1273"
           inkscape:connector-curvature="0" /><path
           d="m -0.016,523.728 c 0.585,0.12 1.19,0.183 1.809,0.183 4.962,0 8.985,-4.037 8.985,-9.015 -0.001,-4.977 -4.023,-9.012 -8.985,-9.013 -0.619,0 -1.224,0.063 -1.809,0.183 z"
           style="fill:#ffffff;fill-opacity:1;fill-rule:nonzero;stroke:none"
           id="path1275"
           inkscape:connector-curvature="0" /><path
           d="m 50.31,514.896 c -0.001,-4.977 -4.023,-9.012 -8.985,-9.013 -4.962,0 -8.984,4.037 -8.984,9.013 0,4.979 4.022,9.014 8.984,9.015 4.962,0 8.985,-4.037 8.985,-9.015"
           style="fill:#ffffff;fill-opacity:1;fill-rule:nonzero;stroke:none"
           id="path1277"
           inkscape:connector-curvature="0" /><path
           d="m 89.841,514.896 c 0,-4.977 -4.023,-9.012 -8.984,-9.013 -4.963,0 -8.985,4.037 -8.985,9.013 0.001,4.979 4.023,9.014 8.984,9.015 4.962,0 8.985,-4.037 8.985,-9.015"
           style="fill:#ffffff;fill-opacity:1;fill-rule:nonzero;stroke:none"
           id="path1279"
           inkscape:connector-curvature="0" /><path
           d="m 129.373,514.896 c -10e-4,-4.977 -4.023,-9.012 -8.985,-9.013 -4.962,0 -8.985,4.037 -8.985,9.013 0,4.979 4.023,9.014 8.985,9.015 4.963,0 8.985,-4.037 8.985,-9.015"
           style="fill:#ffffff;fill-opacity:1;fill-rule:nonzero;stroke:none"
           id="path1281"
           inkscape:connector-curvature="0" /><path
           d="m 168.903,514.896 c 0,-4.977 -4.022,-9.012 -8.983,-9.013 -4.962,0 -8.985,4.037 -8.984,9.013 0,4.979 4.022,9.014 8.983,9.015 4.962,0 8.985,-4.037 8.984,-9.015"
           style="fill:#ffffff;fill-opacity:1;fill-rule:nonzero;stroke:none"
           id="path1283"
           inkscape:connector-curvature="0" /><path
           d="m 208.436,514.896 c -0.001,-4.977 -4.023,-9.012 -8.985,-9.013 -4.962,0 -8.984,4.037 -8.984,9.013 0,4.979 4.022,9.014 8.984,9.015 4.962,0 8.985,-4.037 8.985,-9.015"
           style="fill:#ffffff;fill-opacity:1;fill-rule:nonzero;stroke:none"
           id="path1285"
           inkscape:connector-curvature="0" /><path
           d="m 247.967,514.896 c 0,-4.977 -4.023,-9.012 -8.984,-9.013 -4.962,0 -8.985,4.037 -8.985,9.013 0,4.979 4.023,9.014 8.984,9.015 4.963,0 8.985,-4.037 8.985,-9.015"
           style="fill:#ffffff;fill-opacity:1;fill-rule:nonzero;stroke:none"
           id="path1287"
           inkscape:connector-curvature="0" /><path
           d="m 287.499,514.896 c 0,-4.977 -4.023,-9.012 -8.985,-9.013 -4.962,0 -8.985,4.037 -8.985,9.013 10e-4,4.979 4.023,9.014 8.985,9.015 4.962,0 8.985,-4.037 8.985,-9.015"
           style="fill:#ffffff;fill-opacity:1;fill-rule:nonzero;stroke:none"
           id="path1289"
           inkscape:connector-curvature="0" /><path
           d="m 327.03,514.896 c 0,-4.977 -4.023,-9.012 -8.985,-9.013 -4.962,0 -8.984,4.037 -8.984,9.013 0,4.979 4.022,9.014 8.984,9.015 4.963,0 8.985,-4.037 8.985,-9.015"
           style="fill:#ffffff;fill-opacity:1;fill-rule:nonzero;stroke:none"
           id="path1291"
           inkscape:connector-curvature="0" /><path
           d="m 366.563,514.896 c 0,-4.977 -4.024,-9.012 -8.986,-9.013 -4.961,0 -8.983,4.037 -8.983,9.013 0,4.979 4.022,9.014 8.983,9.015 4.962,0 8.986,-4.037 8.986,-9.015"
           style="fill:#ffffff;fill-opacity:1;fill-rule:nonzero;stroke:none"
           id="path1293"
           inkscape:connector-curvature="0" /><path
           d="m 406.093,514.896 c 0,-4.977 -4.022,-9.012 -8.986,-9.013 -4.961,0 -8.983,4.037 -8.983,9.013 10e-4,4.979 4.022,9.014 8.983,9.015 4.964,0 8.986,-4.037 8.986,-9.015"
           style="fill:#ffffff;fill-opacity:1;fill-rule:nonzero;stroke:none"
           id="path1295"
           inkscape:connector-curvature="0" /><path
           d="m 445.625,514.896 c -10e-4,-4.977 -4.022,-9.012 -8.984,-9.013 -4.963,0 -8.984,4.037 -8.984,9.013 0,4.979 4.021,9.014 8.983,9.015 4.963,0 8.985,-4.037 8.985,-9.015"
           style="fill:#ffffff;fill-opacity:1;fill-rule:nonzero;stroke:none"
           id="path1297"
           inkscape:connector-curvature="0" /><path
           d="m 485.156,514.896 c 0,-4.977 -4.023,-9.012 -8.984,-9.013 -4.962,0 -8.985,4.037 -8.985,9.013 0,4.979 4.023,9.014 8.985,9.015 4.961,0 8.984,-4.037 8.984,-9.015"
           style="fill:#ffffff;fill-opacity:1;fill-rule:nonzero;stroke:none"
           id="path1299"
           inkscape:connector-curvature="0" /><path
           d="m 524.688,514.896 c -10e-4,-4.977 -4.023,-9.012 -8.985,-9.013 -4.963,0 -8.984,4.037 -8.984,9.013 0.001,4.979 4.021,9.014 8.984,9.015 4.962,0 8.985,-4.037 8.985,-9.015"
           style="fill:#ffffff;fill-opacity:1;fill-rule:nonzero;stroke:none"
           id="path1301"
           inkscape:connector-curvature="0" /><path
           d="m 564.219,514.896 c 0,-4.977 -4.022,-9.012 -8.984,-9.013 -4.962,0 -8.984,4.037 -8.984,9.013 0,4.979 4.022,9.014 8.984,9.015 4.962,0 8.984,-4.037 8.984,-9.015"
           style="fill:#ffffff;fill-opacity:1;fill-rule:nonzero;stroke:none"
           id="path1303"
           inkscape:connector-curvature="0" /><path
           d="m 595.242,505.896 c -0.158,-0.008 -0.316,-0.013 -0.476,-0.013 -4.962,0 -8.985,4.037 -8.985,9.013 0,4.979 4.023,9.014 8.985,9.015 0.16,0 0.318,-0.004 0.476,-0.013 z"
           style="fill:#ffffff;fill-opacity:1;fill-rule:nonzero;stroke:none"
           id="path1305"
           inkscape:connector-curvature="0" /><path
           d="m -0.016,563.386 c 0.585,0.12 1.19,0.183 1.809,0.183 4.962,0 8.985,-4.036 8.985,-9.013 -0.001,-4.978 -4.023,-9.013 -8.985,-9.013 -0.619,0 -1.224,0.062 -1.809,0.183 z"
           style="fill:#ffffff;fill-opacity:1;fill-rule:nonzero;stroke:none"
           id="path1307"
           inkscape:connector-curvature="0" /><path
           d="m 50.31,554.556 c -0.001,-4.978 -4.023,-9.013 -8.985,-9.013 -4.962,-10e-4 -8.984,4.036 -8.984,9.013 0,4.978 4.022,9.013 8.984,9.013 4.962,0 8.985,-4.036 8.985,-9.013"
           style="fill:#ffffff;fill-opacity:1;fill-rule:nonzero;stroke:none"
           id="path1309"
           inkscape:connector-curvature="0" /><path
           d="m 89.841,554.556 c 0,-4.978 -4.023,-9.013 -8.984,-9.013 -4.963,-10e-4 -8.985,4.036 -8.985,9.013 0.001,4.978 4.023,9.013 8.984,9.013 4.962,0 8.985,-4.036 8.985,-9.013"
           style="fill:#ffffff;fill-opacity:1;fill-rule:nonzero;stroke:none"
           id="path1311"
           inkscape:connector-curvature="0" /><path
           d="m 129.373,554.556 c -10e-4,-4.978 -4.023,-9.013 -8.985,-9.013 -4.962,-10e-4 -8.985,4.036 -8.985,9.013 0,4.978 4.023,9.013 8.985,9.013 4.963,0 8.985,-4.036 8.985,-9.013"
           style="fill:#ffffff;fill-opacity:1;fill-rule:nonzero;stroke:none"
           id="path1313"
           inkscape:connector-curvature="0" /><path
           d="m 168.903,554.556 c 0,-4.978 -4.022,-9.013 -8.983,-9.013 -4.962,-10e-4 -8.985,4.036 -8.984,9.013 0,4.978 4.022,9.013 8.983,9.013 4.962,0 8.985,-4.036 8.984,-9.013"
           style="fill:#ffffff;fill-opacity:1;fill-rule:nonzero;stroke:none"
           id="path1315"
           inkscape:connector-curvature="0" /><path
           d="m 208.436,554.556 c -0.001,-4.978 -4.023,-9.013 -8.985,-9.013 -4.962,-10e-4 -8.984,4.036 -8.984,9.013 0,4.978 4.022,9.013 8.984,9.013 4.962,0 8.985,-4.036 8.985,-9.013"
           style="fill:#ffffff;fill-opacity:1;fill-rule:nonzero;stroke:none"
           id="path1317"
           inkscape:connector-curvature="0" /><path
           d="m 247.967,554.556 c 0,-4.978 -4.023,-9.013 -8.984,-9.013 -4.962,-10e-4 -8.985,4.036 -8.985,9.013 0,4.978 4.023,9.013 8.984,9.013 4.963,0 8.985,-4.036 8.985,-9.013"
           style="fill:#ffffff;fill-opacity:1;fill-rule:nonzero;stroke:none"
           id="path1319"
           inkscape:connector-curvature="0" /><path
           d="m 287.499,554.556 c 0,-4.978 -4.023,-9.013 -8.985,-9.013 -4.962,-10e-4 -8.985,4.036 -8.985,9.013 10e-4,4.978 4.023,9.013 8.985,9.013 4.962,0 8.985,-4.036 8.985,-9.013"
           style="fill:#ffffff;fill-opacity:1;fill-rule:nonzero;stroke:none"
           id="path1321"
           inkscape:connector-curvature="0" /><path
           d="m 327.03,554.556 c 0,-4.978 -4.023,-9.013 -8.985,-9.013 -4.962,-10e-4 -8.984,4.036 -8.984,9.013 0,4.978 4.022,9.013 8.984,9.013 4.963,0 8.985,-4.036 8.985,-9.013"
           style="fill:#ffffff;fill-opacity:1;fill-rule:nonzero;stroke:none"
           id="path1323"
           inkscape:connector-curvature="0" /><path
           d="m 366.563,554.556 c 0,-4.978 -4.024,-9.013 -8.986,-9.013 -4.961,-10e-4 -8.983,4.036 -8.983,9.013 0,4.978 4.022,9.013 8.983,9.013 4.962,0 8.986,-4.036 8.986,-9.013"
           style="fill:#ffffff;fill-opacity:1;fill-rule:nonzero;stroke:none"
           id="path1325"
           inkscape:connector-curvature="0" /><path
           d="m 406.093,554.556 c 0,-4.978 -4.022,-9.013 -8.986,-9.013 -4.961,-10e-4 -8.983,4.036 -8.983,9.013 10e-4,4.978 4.022,9.013 8.983,9.013 4.964,0 8.986,-4.036 8.986,-9.013"
           style="fill:#ffffff;fill-opacity:1;fill-rule:nonzero;stroke:none"
           id="path1327"
           inkscape:connector-curvature="0" /><path
           d="m 445.625,554.556 c -10e-4,-4.978 -4.022,-9.013 -8.984,-9.013 -4.963,-10e-4 -8.984,4.036 -8.984,9.013 0,4.978 4.021,9.013 8.983,9.013 4.963,0 8.985,-4.036 8.985,-9.013"
           style="fill:#ffffff;fill-opacity:1;fill-rule:nonzero;stroke:none"
           id="path1329"
           inkscape:connector-curvature="0" /><path
           d="m 485.156,554.556 c 0,-4.978 -4.023,-9.013 -8.984,-9.013 -4.962,-10e-4 -8.985,4.036 -8.985,9.013 0,4.978 4.023,9.013 8.985,9.013 4.961,0 8.984,-4.036 8.984,-9.013"
           style="fill:#ffffff;fill-opacity:1;fill-rule:nonzero;stroke:none"
           id="path1331"
           inkscape:connector-curvature="0" /><path
           d="m 524.688,554.556 c -10e-4,-4.978 -4.023,-9.013 -8.985,-9.013 -4.963,-10e-4 -8.984,4.036 -8.984,9.013 0.001,4.978 4.021,9.013 8.984,9.013 4.962,0 8.985,-4.036 8.985,-9.013"
           style="fill:#ffffff;fill-opacity:1;fill-rule:nonzero;stroke:none"
           id="path1333"
           inkscape:connector-curvature="0" /><path
           d="m 564.219,554.556 c 0,-4.978 -4.022,-9.013 -8.984,-9.013 -4.962,-10e-4 -8.984,4.036 -8.984,9.013 0,4.978 4.022,9.013 8.984,9.013 4.962,0 8.984,-4.036 8.984,-9.013"
           style="fill:#ffffff;fill-opacity:1;fill-rule:nonzero;stroke:none"
           id="path1335"
           inkscape:connector-curvature="0" /><path
           d="m 595.242,545.555 c -0.158,-0.008 -0.316,-0.012 -0.476,-0.012 -4.962,-10e-4 -8.985,4.036 -8.985,9.013 0,4.978 4.023,9.013 8.985,9.013 0.16,0 0.318,-0.004 0.476,-0.012 z"
           style="fill:#ffffff;fill-opacity:1;fill-rule:nonzero;stroke:none"
           id="path1337"
           inkscape:connector-curvature="0" /><path
           d="m 10.749,594.947 c 0.019,-0.241 0.029,-0.486 0.029,-0.732 -0.001,-4.978 -4.023,-9.012 -8.985,-9.013 -0.619,0 -1.224,0.063 -1.809,0.183 v 9.562 z"
           style="fill:#ffffff;fill-opacity:1;fill-rule:nonzero;stroke:none"
           id="path1339"
           inkscape:connector-curvature="0" /><path
           d="m 50.28,594.947 c 0.02,-0.241 0.03,-0.486 0.03,-0.732 -0.001,-4.978 -4.023,-9.012 -8.985,-9.013 -4.962,0 -8.984,4.036 -8.984,9.013 0,0.246 0.01,0.491 0.03,0.732 z"
           style="fill:#ffffff;fill-opacity:1;fill-rule:nonzero;stroke:none"
           id="path1341"
           inkscape:connector-curvature="0" /><path
           d="m 89.812,594.947 c 0.019,-0.241 0.029,-0.486 0.029,-0.732 0,-4.978 -4.023,-9.012 -8.984,-9.013 -4.963,0 -8.985,4.036 -8.985,9.013 0,0.246 0.009,0.491 0.029,0.732 z"
           style="fill:#ffffff;fill-opacity:1;fill-rule:nonzero;stroke:none"
           id="path1343"
           inkscape:connector-curvature="0" /><path
           d="m 129.344,594.947 c 0.019,-0.241 0.029,-0.486 0.029,-0.732 -10e-4,-4.978 -4.023,-9.012 -8.985,-9.013 -4.962,0 -8.985,4.036 -8.985,9.013 0,0.246 0.01,0.491 0.03,0.732 z"
           style="fill:#ffffff;fill-opacity:1;fill-rule:nonzero;stroke:none"
           id="path1345"
           inkscape:connector-curvature="0" /><path
           d="m 168.875,594.947 c 0.019,-0.241 0.028,-0.486 0.028,-0.732 0,-4.978 -4.022,-9.012 -8.983,-9.013 -4.962,0 -8.985,4.036 -8.984,9.013 0,0.246 0.009,0.491 0.029,0.732 z"
           style="fill:#ffffff;fill-opacity:1;fill-rule:nonzero;stroke:none"
           id="path1347"
           inkscape:connector-curvature="0" /><path
           d="m 208.406,594.947 c 0.02,-0.241 0.03,-0.486 0.03,-0.732 -0.001,-4.978 -4.023,-9.012 -8.985,-9.013 -4.962,0 -8.984,4.036 -8.984,9.013 0,0.246 0.01,0.491 0.029,0.732 z"
           style="fill:#ffffff;fill-opacity:1;fill-rule:nonzero;stroke:none"
           id="path1349"
           inkscape:connector-curvature="0" /><path
           d="m 247.938,594.947 c 0.019,-0.241 0.029,-0.486 0.029,-0.732 0,-4.978 -4.023,-9.012 -8.984,-9.013 -4.962,0 -8.985,4.036 -8.985,9.013 0,0.246 0.01,0.491 0.029,0.732 z"
           style="fill:#ffffff;fill-opacity:1;fill-rule:nonzero;stroke:none"
           id="path1351"
           inkscape:connector-curvature="0" /><path
           d="m 287.469,594.947 c 0.019,-0.241 0.03,-0.486 0.03,-0.732 0,-4.978 -4.023,-9.012 -8.985,-9.013 -4.962,0 -8.985,4.036 -8.985,9.013 0,0.246 0.01,0.491 0.03,0.732 z"
           style="fill:#ffffff;fill-opacity:1;fill-rule:nonzero;stroke:none"
           id="path1353"
           inkscape:connector-curvature="0" /><path
           d="m 327,594.947 c 0.021,-0.241 0.03,-0.486 0.03,-0.732 0,-4.978 -4.023,-9.012 -8.985,-9.013 -4.962,0 -8.984,4.036 -8.984,9.013 0,0.246 0.009,0.491 0.029,0.732 z"
           style="fill:#ffffff;fill-opacity:1;fill-rule:nonzero;stroke:none"
           id="path1355"
           inkscape:connector-curvature="0" /><path
           d="m 366.533,594.947 c 0.02,-0.241 0.03,-0.486 0.03,-0.732 0,-4.978 -4.024,-9.012 -8.986,-9.013 -4.961,0 -8.983,4.036 -8.983,9.013 0,0.246 0.01,0.491 0.029,0.732 z"
           style="fill:#ffffff;fill-opacity:1;fill-rule:nonzero;stroke:none"
           id="path1357"
           inkscape:connector-curvature="0" /><path
           d="m 406.063,594.947 c 0.02,-0.241 0.03,-0.486 0.03,-0.732 0,-4.978 -4.022,-9.012 -8.986,-9.013 -4.961,0 -8.983,4.036 -8.983,9.013 0,0.246 0.01,0.491 0.029,0.732 z"
           style="fill:#ffffff;fill-opacity:1;fill-rule:nonzero;stroke:none"
           id="path1359"
           inkscape:connector-curvature="0" /><path
           d="m 445.596,594.947 c 0.019,-0.241 0.029,-0.486 0.029,-0.732 -10e-4,-4.978 -4.022,-9.012 -8.984,-9.013 -4.963,0 -8.984,4.036 -8.984,9.013 0,0.246 0.01,0.491 0.029,0.732 z"
           style="fill:#ffffff;fill-opacity:1;fill-rule:nonzero;stroke:none"
           id="path1361"
           inkscape:connector-curvature="0" /><path
           d="m 485.127,594.947 c 0.019,-0.241 0.029,-0.486 0.029,-0.732 0,-4.978 -4.023,-9.012 -8.984,-9.013 -4.962,0 -8.985,4.036 -8.985,9.013 0,0.246 0.009,0.491 0.029,0.732 z"
           style="fill:#ffffff;fill-opacity:1;fill-rule:nonzero;stroke:none"
           id="path1363"
           inkscape:connector-curvature="0" /><path
           d="m 524.658,594.947 c 0.02,-0.241 0.03,-0.486 0.03,-0.732 -10e-4,-4.978 -4.023,-9.012 -8.985,-9.013 -4.963,0 -8.984,4.036 -8.984,9.013 0,0.246 0.01,0.491 0.029,0.732 z"
           style="fill:#ffffff;fill-opacity:1;fill-rule:nonzero;stroke:none"
           id="path1365"
           inkscape:connector-curvature="0" /><path
           d="m 564.19,594.947 c 0.019,-0.241 0.029,-0.486 0.029,-0.732 0,-4.978 -4.022,-9.012 -8.984,-9.013 -4.962,0 -8.984,4.036 -8.984,9.013 0,0.246 0.01,0.491 0.029,0.732 z"
           style="fill:#ffffff;fill-opacity:1;fill-rule:nonzero;stroke:none"
           id="path1367"
           inkscape:connector-curvature="0" /><path
           d="m 595.242,585.215 c -0.158,-0.008 -0.316,-0.013 -0.476,-0.013 -4.962,0 -8.985,4.036 -8.985,9.013 0,0.246 0.01,0.491 0.03,0.732 h 9.431 z"
           style="fill:#ffffff;fill-opacity:1;fill-rule:nonzero;stroke:none"
           id="path1369"
           inkscape:connector-curvature="0" /></g></g></g></svg>